{"glyphs":{"0":{"ha":681,"x_min":97,"x_max":743,"o":"m 554 956 q 743 713 743 956 q 679 370 743 549 q 509 83 614 191 q 288 -24 405 -24 q 147 35 197 -24 q 97 229 97 94 q 227 698 97 441 q 554 956 356 956 m 338 56 q 491 323 418 56 q 564 761 564 590 q 501 873 564 873 q 417 795 458 873 q 325 509 376 718 q 273 168 273 300 q 338 56 273 56 z "},"1":{"ha":681,"x_min":89,"x_max":656,"o":"m 656 928 q 534 553 605 797 l 435 205 q 406 92 406 102 q 421 63 406 71 q 498 45 437 55 q 525 39 517 41 l 511 -7 q 311 0 374 0 q 89 -7 266 0 l 103 39 q 199 65 182 58 q 228 98 217 73 q 284 272 239 123 l 378 589 q 428 775 428 755 q 404 794 428 794 q 336 787 389 794 l 301 782 l 317 833 q 625 954 505 882 l 656 928 z "},"2":{"ha":681,"x_min":-1,"x_max":715,"o":"m 268 884 q 489 956 368 956 q 658 897 601 956 q 715 755 715 839 q 681 617 715 688 q 561 455 646 545 q 265 180 475 364 q 231 149 255 173 l 439 149 q 532 164 504 149 q 600 248 559 179 l 661 248 q 549 -7 564 26 q 286 0 406 0 q -1 -7 243 0 l 9 46 q 365 395 190 207 q 541 717 541 584 q 529 772 541 747 q 493 811 517 798 q 436 825 470 825 q 268 701 335 825 l 212 705 q 218 722 212 711 q 268 884 252 812 z "},"3":{"ha":681,"x_min":35,"x_max":690,"o":"m 304 900 q 492 954 395 954 q 639 909 587 954 q 690 799 690 865 q 648 681 690 734 q 500 575 605 628 q 640 368 640 531 q 533 98 640 219 q 241 -24 425 -24 q 35 25 127 -24 q 98 207 77 119 l 154 207 q 186 82 154 117 q 272 47 218 47 q 409 135 357 47 q 461 322 461 223 q 271 514 461 501 l 286 568 q 476 644 414 593 q 539 761 539 694 q 514 826 539 802 q 447 850 489 850 q 384 833 412 850 q 323 765 357 816 l 267 765 q 304 900 295 841 z "},"4":{"ha":681,"x_min":45,"x_max":745,"o":"m 745 930 q 558 335 693 812 q 675 343 626 335 l 688 325 q 635 218 654 276 q 526 224 598 222 q 493 87 493 102 q 504 66 493 73 q 537 54 514 59 l 591 43 q 612 39 597 43 l 600 -7 q 404 0 465 0 q 187 -7 327 0 l 201 39 q 224 43 213 43 q 295 60 280 53 q 325 98 311 67 q 368 224 339 129 q 45 220 84 222 q 65 322 60 276 q 561 884 393 682 q 717 954 643 909 l 745 930 m 530 741 l 528 743 q 501 709 526 739 l 450 647 l 313 490 q 176 335 202 365 l 404 335 q 530 741 453 522 z "},"5":{"ha":681,"x_min":50,"x_max":751,"o":"m 751 920 q 685 782 712 860 q 385 790 519 790 l 332 672 q 582 590 518 672 q 646 399 646 507 q 527 108 646 240 q 221 -24 408 -24 q 50 11 132 -24 q 115 189 90 84 l 168 189 q 283 57 174 57 q 424 130 368 57 q 481 313 481 203 q 431 472 481 413 q 292 530 382 530 q 216 519 253 530 l 187 551 q 361 936 295 739 q 496 930 458 930 q 741 937 595 930 l 751 920 z "},"6":{"ha":681,"x_min":89,"x_max":747,"o":"m 747 897 q 330 500 467 764 l 334 497 q 536 612 468 612 q 644 557 597 612 q 690 404 690 502 q 578 110 690 243 q 309 -24 465 -24 q 141 41 194 -24 q 89 207 89 106 q 250 641 89 427 q 722 960 410 854 l 747 897 m 354 54 q 469 149 424 54 q 514 351 514 243 q 433 490 514 490 q 312 410 364 490 q 260 221 260 330 q 354 54 260 54 z "},"7":{"ha":681,"x_min":129,"x_max":808,"o":"m 808 939 l 796 872 l 671 642 l 555 421 l 328 -24 q 236 -20 288 -20 q 143 -24 205 -20 l 129 0 q 664 790 342 295 l 395 790 q 336 782 354 790 q 293 735 318 774 q 262 681 268 696 l 197 681 q 298 939 254 810 q 557 930 463 930 q 808 939 684 930 z "},"8":{"ha":681,"x_min":75,"x_max":733,"o":"m 326 497 q 237 708 237 613 q 272 827 237 767 q 373 921 307 886 q 528 956 438 956 q 682 909 630 956 q 733 787 733 863 q 690 663 733 719 q 525 536 647 606 q 650 285 650 400 q 548 71 650 166 q 302 -24 447 -24 q 136 36 197 -24 q 75 184 75 95 q 127 341 75 271 q 326 497 179 412 m 481 591 q 599 782 599 674 q 574 857 599 828 q 510 886 549 886 q 432 851 466 886 q 399 764 399 816 q 481 591 399 694 m 482 214 q 372 440 482 304 q 216 200 216 344 q 251 99 216 143 q 342 54 286 54 q 443 103 403 54 q 482 214 482 152 z "},"9":{"ha":681,"x_min":86,"x_max":746,"o":"m 505 441 q 310 325 378 325 q 193 382 241 325 q 146 542 146 440 q 258 825 146 696 q 521 954 370 954 q 690 883 633 954 q 746 710 746 811 q 579 283 746 496 q 111 -28 412 71 l 86 36 q 509 439 377 176 l 505 441 m 407 446 q 522 520 469 446 q 575 720 575 595 q 481 876 575 876 q 369 786 415 876 q 323 602 323 696 q 407 446 323 446 z "}," ":{"ha":340,"x_min":0,"x_max":0,"o":""},"!":{"ha":390,"x_min":81,"x_max":539,"o":"m 539 935 q 397 597 487 822 q 293 338 308 372 l 275 293 l 211 293 q 309 900 292 743 q 504 960 414 918 l 539 935 m 199 225 q 268 197 239 225 q 297 118 297 168 q 261 21 297 62 q 175 -20 226 -20 q 108 8 135 -20 q 81 83 81 36 q 115 181 81 138 q 199 225 149 225 z "},"\"":{"ha":766,"x_min":281,"x_max":829,"o":"m 608 504 q 615 803 614 773 q 630 869 616 833 q 681 930 644 905 q 757 956 718 956 q 829 880 829 956 q 822 845 829 864 q 764 730 815 826 l 642 504 l 608 504 m 281 504 q 287 803 286 773 q 302 869 288 833 q 353 930 316 905 q 429 956 389 956 q 501 880 501 956 q 494 845 501 864 q 436 730 487 826 l 314 504 l 281 504 z "},"#":{"ha":926,"x_min":138,"x_max":953,"o":"m 953 236 l 742 236 l 685 -28 l 572 -28 l 629 236 l 371 236 l 317 -28 l 204 -28 l 258 236 l 138 236 l 138 347 l 282 347 l 329 570 l 138 570 l 138 682 l 350 682 l 408 947 l 519 947 l 463 682 l 720 682 l 775 947 l 888 947 l 831 682 l 953 682 l 953 570 l 810 570 l 762 347 l 953 347 l 953 236 m 697 570 l 440 570 l 395 349 l 652 349 l 697 570 z "},"$":{"ha":681,"x_min":40,"x_max":768,"o":"m 768 856 q 699 692 719 758 l 647 700 q 648 730 648 718 q 572 856 648 828 l 486 557 q 549 470 498 545 q 614 356 600 394 q 629 277 629 317 q 549 81 629 171 q 318 -22 469 -9 l 286 -132 l 208 -132 l 240 -20 q 40 37 127 -7 q 111 227 73 104 l 165 220 q 163 183 163 197 q 261 53 163 83 l 366 414 q 252 582 277 531 q 228 679 228 633 q 296 841 228 770 q 514 929 365 911 l 536 1002 l 615 1002 l 591 925 q 768 856 694 909 m 494 864 q 385 745 385 842 q 429 637 385 700 l 494 864 m 340 53 q 433 111 404 67 q 463 210 463 155 q 422 336 463 262 l 340 53 z "},"%":{"ha":1055,"x_min":151,"x_max":1054,"o":"m 1004 953 l 306 -60 l 210 -60 l 908 953 l 1004 953 m 418 953 q 517 915 481 953 q 553 806 553 877 q 477 554 553 673 q 290 435 402 435 q 186 478 221 435 q 151 583 151 521 q 230 831 151 710 q 418 953 309 953 m 307 489 q 354 516 332 489 q 406 645 376 544 q 436 817 436 746 q 396 897 436 897 q 305 771 342 897 q 268 566 268 645 q 307 489 268 489 m 921 458 q 1019 420 983 458 q 1054 311 1054 382 q 979 59 1054 178 q 791 -60 904 -60 q 688 -17 723 -60 q 653 87 653 26 q 732 336 653 214 q 921 458 812 458 m 810 -7 q 856 21 835 -7 q 907 150 878 49 q 937 322 937 250 q 899 403 937 403 q 808 277 844 403 q 771 71 771 151 q 810 -7 771 -7 z "},"&":{"ha":999,"x_min":60,"x_max":1015,"o":"m 1015 498 l 1004 457 q 924 431 952 445 q 872 382 897 417 q 741 204 766 233 q 854 117 795 117 q 962 168 887 117 l 999 122 l 904 47 q 835 4 879 27 q 753 -20 791 -20 q 597 69 674 -20 q 314 -20 471 -20 q 125 46 190 -20 q 60 208 60 113 q 138 401 60 318 q 414 559 216 484 q 404 676 404 618 q 443 831 404 766 q 548 928 481 895 q 681 961 615 961 q 791 924 752 961 q 831 825 831 886 q 596 568 831 675 q 701 267 637 384 q 779 415 779 362 q 720 457 779 441 l 732 498 q 875 492 821 492 q 1015 498 932 492 m 586 635 q 715 812 715 694 q 696 880 715 852 q 647 907 677 907 q 575 761 575 907 q 586 635 575 720 m 559 127 q 424 498 463 292 q 283 392 324 447 q 243 267 243 336 q 295 137 243 189 q 427 85 347 85 q 559 127 490 85 z "},"'":{"ha":390,"x_min":279,"x_max":500,"o":"m 279 504 q 286 803 285 773 q 301 869 287 833 q 351 930 315 905 q 428 956 388 956 q 500 880 500 956 q 493 845 500 864 q 435 730 486 826 l 313 504 l 279 504 z "},"(":{"ha":463,"x_min":75,"x_max":636,"o":"m 636 993 l 614 914 q 330 517 433 759 q 228 35 228 275 q 285 -227 228 -111 l 262 -296 q 75 161 75 -111 q 221 631 75 406 q 636 993 368 857 z "},")":{"ha":449,"x_min":-98,"x_max":463,"o":"m 275 993 q 463 536 463 808 q 316 66 463 292 q -98 -296 170 -159 l -77 -216 q 208 180 105 -62 q 310 663 310 422 q 253 924 310 808 l 275 993 z "},"*":{"ha":636,"x_min":150,"x_max":703,"o":"m 703 732 l 460 715 l 644 558 l 518 468 l 425 692 l 332 468 l 204 558 l 390 715 l 150 737 l 199 882 l 404 753 l 350 989 l 504 989 l 447 753 l 654 878 l 703 732 z "},"+":{"ha":926,"x_min":170,"x_max":920,"o":"m 920 400 l 607 400 l 607 90 l 482 90 l 482 400 l 170 400 l 170 526 l 482 526 l 482 839 l 607 839 l 607 526 l 920 526 l 920 400 z "},",":{"ha":390,"x_min":-26,"x_max":285,"o":"m 186 220 q 285 56 285 168 q 227 -109 285 -31 q 11 -292 170 -186 l -26 -235 q 131 -12 131 -102 q 121 25 131 13 q 96 42 111 38 q 65 43 93 43 l 43 85 q 186 220 122 143 z "},"-":{"ha":433,"x_min":36,"x_max":437,"o":"m 437 353 q 382 225 406 298 q 171 232 283 232 q 52 225 98 232 l 36 248 q 97 375 71 304 q 243 371 194 371 q 422 375 292 371 l 437 353 z "},".":{"ha":390,"x_min":81,"x_max":297,"o":"m 199 225 q 268 197 239 225 q 297 118 297 168 q 261 21 297 62 q 175 -20 225 -20 q 109 7 136 -20 q 81 82 81 34 q 115 181 81 138 q 199 225 149 225 z "},"/":{"ha":782,"x_min":142,"x_max":771,"o":"m 771 989 l 275 -3 l 142 -3 l 636 989 l 771 989 z "},":":{"ha":390,"x_min":81,"x_max":411,"o":"m 313 631 q 382 602 353 631 q 411 524 411 574 q 375 427 411 467 q 289 386 340 386 q 222 413 250 386 q 195 488 195 439 q 229 587 195 543 q 313 631 262 631 m 199 225 q 268 197 239 225 q 297 118 297 168 q 261 21 297 62 q 175 -20 225 -20 q 109 7 136 -20 q 81 82 81 34 q 115 181 81 138 q 199 225 149 225 z "},";":{"ha":390,"x_min":-26,"x_max":411,"o":"m 313 631 q 382 602 353 631 q 411 524 411 574 q 375 427 411 467 q 289 386 340 386 q 222 413 250 386 q 195 488 195 439 q 229 587 195 543 q 313 631 262 631 m 186 220 q 285 56 285 168 q 227 -109 285 -31 q 11 -292 170 -186 l -26 -235 q 131 -12 131 -102 q 121 25 131 13 q 96 42 111 38 q 65 43 93 43 l 43 85 q 186 220 122 143 z "},"<":{"ha":926,"x_min":154,"x_max":901,"o":"m 901 94 l 154 407 l 154 521 l 901 833 l 901 699 l 325 464 l 901 231 l 901 94 z "},"=":{"ha":926,"x_min":171,"x_max":920,"o":"m 920 555 l 171 555 l 171 681 l 920 681 l 920 555 m 920 233 l 171 233 l 171 358 l 920 358 l 920 233 z "},">":{"ha":926,"x_min":171,"x_max":918,"o":"m 918 407 l 171 94 l 171 229 l 749 464 l 171 697 l 171 833 l 918 521 l 918 407 z "},"?":{"ha":579,"x_min":129,"x_max":665,"o":"m 265 909 q 460 961 362 961 q 612 915 559 961 q 665 794 665 869 q 624 671 665 726 q 521 562 582 616 q 388 429 428 481 q 319 296 349 377 l 253 296 q 397 595 290 458 q 483 715 465 680 q 501 781 501 749 q 477 842 501 818 q 415 865 454 865 q 342 839 374 865 q 272 730 311 812 l 216 730 q 265 909 262 882 m 248 225 q 317 197 288 225 q 346 118 346 168 q 310 22 346 63 q 224 -20 275 -20 q 155 10 182 -20 q 129 85 129 39 q 163 181 129 137 q 248 225 197 225 z "},"@":{"ha":1157,"x_min":43,"x_max":1198,"o":"m 1198 109 q 968 -188 1118 -87 q 623 -289 818 -289 q 208 -127 372 -289 q 43 285 43 34 q 221 728 43 549 q 675 907 399 907 q 1020 781 895 907 q 1145 465 1145 654 q 1034 138 1145 277 q 753 0 924 0 q 654 31 688 0 q 619 117 619 61 q 635 204 619 146 l 632 207 q 410 0 519 0 q 328 41 357 0 q 300 147 300 83 q 355 376 300 264 q 493 558 410 488 q 637 629 576 629 q 729 528 722 629 l 732 528 l 753 606 l 913 611 l 799 220 q 779 142 784 169 q 774 100 774 115 q 789 63 774 78 q 827 47 804 47 q 947 102 876 47 q 1063 250 1017 157 q 1108 453 1108 343 q 1056 663 1108 567 q 909 812 1004 759 q 689 865 814 865 q 272 688 433 865 q 111 262 111 511 q 257 -110 111 34 q 623 -253 402 -253 q 941 -161 791 -253 q 1158 109 1090 -68 l 1198 109 m 507 119 q 628 247 554 119 q 701 494 701 375 q 687 559 701 537 q 657 582 673 582 q 533 429 599 582 q 468 182 468 277 q 479 136 468 153 q 507 119 491 119 z "},"A":{"ha":954,"x_min":-43,"x_max":922,"o":"m 922 40 l 909 -7 q 682 0 791 0 q 422 -7 562 0 l 436 40 q 445 43 437 41 q 565 89 547 69 q 597 239 583 108 q 603 282 600 272 l 361 282 q 254 136 286 183 q 221 75 221 90 q 232 57 221 62 q 290 45 242 53 q 300 42 294 44 q 309 40 307 40 l 294 -7 q 131 0 206 0 q -43 -7 60 0 l -29 40 l 18 52 q 74 76 55 62 q 194 211 93 90 q 515 616 294 332 q 778 961 736 899 l 839 961 q 802 476 819 772 q 785 117 785 180 q 791 86 785 96 q 825 67 798 77 q 922 40 852 58 m 642 657 l 639 660 q 414 351 433 375 l 610 351 l 628 533 q 642 657 637 631 z "},"B":{"ha":854,"x_min":-41,"x_max":905,"o":"m 220 939 q 421 930 314 930 l 697 939 q 851 893 798 939 q 905 771 905 848 q 838 607 905 682 q 611 501 770 532 l 611 498 q 827 318 827 495 q 714 92 827 192 q 407 -8 601 -8 l 127 1 q -41 -7 55 1 l -28 40 q 7 47 -12 45 q 101 73 88 64 q 163 227 118 83 q 275 609 219 408 q 335 843 335 829 q 323 863 335 857 q 232 885 311 869 q 219 888 229 885 q 204 890 207 890 l 220 939 m 443 541 q 659 598 591 536 q 728 755 728 661 q 612 871 728 871 q 534 863 583 871 l 443 541 m 307 74 q 399 65 373 65 q 571 136 513 65 q 629 319 629 208 q 462 473 629 473 q 421 471 446 473 l 307 74 z "},"C":{"ha":897,"x_min":117,"x_max":1028,"o":"m 1028 896 q 951 639 964 718 l 888 643 q 886 780 888 764 q 855 847 880 825 q 795 879 831 869 q 729 888 760 888 q 446 718 565 888 q 328 346 328 549 q 382 164 328 232 q 538 97 437 97 q 665 123 600 97 q 828 216 730 149 l 871 160 q 441 -28 651 -28 q 201 69 286 -28 q 117 311 117 165 q 201 629 117 476 q 429 872 285 783 q 742 961 573 961 q 1028 896 878 961 z "},"D":{"ha":1042,"x_min":-40,"x_max":1079,"o":"m 220 939 q 422 930 356 930 l 449 930 l 716 935 q 1079 614 1079 935 q 998 317 1079 467 q 762 80 916 167 q 393 -7 607 -7 l 149 0 q -40 -7 133 0 l -25 40 q 37 51 -16 40 q 103 72 90 62 q 131 121 115 81 q 195 330 146 161 l 289 660 q 335 843 335 821 q 302 869 335 863 q 232 885 267 876 q 205 890 212 890 l 220 939 m 321 79 q 449 68 401 68 q 748 227 628 68 q 868 603 868 385 q 807 805 868 743 q 639 867 746 867 q 542 859 590 867 l 442 518 q 357 213 390 338 q 321 79 323 88 z "},"E":{"ha":882,"x_min":-36,"x_max":970,"o":"m 970 939 q 905 689 937 840 l 852 689 q 846 833 849 821 q 824 853 842 846 q 751 860 805 860 l 543 860 l 446 525 l 547 525 q 609 532 588 525 q 655 569 631 538 q 704 653 679 600 l 760 653 q 661 301 688 426 l 606 301 q 611 414 611 377 q 596 447 611 437 q 530 456 581 456 l 425 456 l 387 323 l 321 75 l 572 75 q 655 83 630 75 q 709 127 681 92 q 798 261 737 163 l 856 261 q 762 -7 817 161 l 313 0 q -36 -7 149 0 l -24 40 q 102 69 83 58 q 161 212 121 80 l 270 584 q 338 844 338 823 q 327 864 338 858 q 210 890 316 871 l 222 939 q 542 930 351 930 q 970 939 755 930 z "},"F":{"ha":825,"x_min":-40,"x_max":996,"o":"m 996 939 q 958 797 977 861 q 926 665 940 734 l 871 665 q 864 812 868 787 q 843 846 860 837 q 782 854 826 854 l 543 854 q 447 524 500 722 l 517 524 q 605 541 586 524 q 673 642 625 558 q 677 650 677 649 l 733 650 l 684 488 q 639 318 659 405 q 633 290 639 307 l 576 290 q 585 408 585 396 q 567 446 585 439 q 492 453 549 453 l 425 453 l 355 191 q 328 85 328 90 q 347 65 328 68 l 492 40 l 479 -7 q 232 0 334 0 q -40 -7 136 0 l -25 40 q 8 46 -16 43 q 93 66 78 60 q 127 120 107 72 q 172 250 147 168 l 242 490 q 312 736 288 646 q 336 843 336 825 q 327 862 336 857 q 264 879 317 867 q 207 890 212 890 l 220 939 q 614 930 446 930 q 996 939 793 930 z "},"G":{"ha":1055,"x_min":118,"x_max":1101,"o":"m 1101 453 l 1088 406 q 973 376 989 386 q 937 309 957 367 q 875 66 918 251 q 640 -8 722 12 q 473 -28 557 -28 q 205 65 292 -28 q 118 315 118 159 q 200 623 118 467 q 430 870 283 779 q 766 961 577 961 q 1064 901 927 961 q 985 647 1038 829 l 921 650 q 908 814 921 777 q 847 870 895 852 q 749 888 799 888 q 450 719 571 888 q 329 335 329 550 q 385 136 329 207 q 547 65 441 65 q 690 98 616 65 l 758 335 q 761 358 761 347 q 741 381 761 373 q 642 406 721 390 l 656 453 q 872 444 783 444 q 953 447 882 444 l 1059 450 q 1101 453 1094 452 z "},"H":{"ha":1028,"x_min":-33,"x_max":1223,"o":"m 1223 939 l 1211 890 q 1085 857 1103 872 q 1010 663 1063 837 l 922 351 q 854 86 854 105 q 866 66 854 72 q 991 40 878 60 l 978 -7 q 746 0 862 0 q 490 -7 617 0 l 503 40 q 564 52 507 40 q 634 78 621 64 q 680 194 647 92 q 758 458 712 296 l 428 458 q 330 86 330 119 q 341 66 330 73 q 401 50 352 60 q 461 40 450 40 l 449 -7 q 199 0 285 0 q -33 -7 95 0 l -22 40 q 12 47 0 45 q 103 72 87 61 q 156 194 120 82 q 265 566 192 306 q 338 844 338 825 q 327 864 338 858 q 265 881 316 871 q 207 890 214 890 l 221 939 q 461 930 363 930 q 703 939 580 930 l 690 890 q 618 881 665 890 q 557 856 571 871 q 512 748 543 840 q 450 538 482 655 q 781 538 627 536 l 839 751 q 863 846 863 840 q 847 866 863 859 q 732 890 831 873 l 747 939 q 972 930 867 930 q 1223 939 1067 930 z "},"I":{"ha":507,"x_min":-35,"x_max":707,"o":"m 707 939 l 693 890 q 630 879 681 890 q 566 856 579 867 q 531 786 553 846 q 461 567 508 727 q 371 250 414 407 q 329 89 329 94 q 347 65 329 73 q 467 40 366 57 l 453 -7 q 205 0 338 0 l -35 -7 l -20 40 q 14 47 -3 45 q 87 64 68 58 q 115 83 106 70 q 156 193 124 96 q 233 443 189 290 q 311 715 278 595 q 343 846 343 835 q 335 863 343 858 q 272 879 326 868 q 210 890 217 890 l 222 939 q 468 930 378 930 q 707 939 570 930 z "},"J":{"ha":636,"x_min":9,"x_max":846,"o":"m 846 939 l 832 890 q 707 858 726 875 q 650 722 687 842 q 564 419 614 603 l 534 306 q 497 185 520 254 q 433 68 475 115 q 331 -4 391 20 q 195 -28 271 -28 q 9 16 109 -28 q 82 260 47 102 l 150 260 q 142 161 142 191 q 205 52 142 52 q 265 90 240 52 q 388 478 290 127 q 486 844 486 828 q 480 860 486 854 q 417 878 475 866 q 354 890 359 890 l 368 939 q 610 930 502 930 q 846 939 713 930 z "},"K":{"ha":1028,"x_min":-37,"x_max":1161,"o":"m 1161 939 l 1149 890 q 1050 868 1082 880 q 988 837 1018 857 q 873 750 959 818 l 709 621 q 607 539 631 560 q 833 133 808 176 q 879 78 858 90 q 1010 40 901 66 l 996 -7 q 771 0 871 0 q 514 -7 692 0 l 528 40 q 578 52 530 40 q 627 77 627 63 q 583 177 627 89 l 435 482 q 372 262 415 420 q 329 85 329 104 q 348 64 329 71 q 460 40 366 58 l 447 -7 q 228 0 336 0 q -37 -7 114 0 l -24 40 q 105 71 98 64 q 164 220 125 92 l 276 606 q 338 846 338 826 q 326 864 338 859 q 239 885 313 869 l 223 888 q 208 890 211 890 l 222 939 q 469 930 389 930 q 703 939 568 930 l 688 890 q 565 860 583 873 q 529 797 548 847 q 439 504 511 746 l 441 501 q 727 743 627 660 q 836 836 827 826 q 844 857 844 846 q 808 882 844 873 q 771 890 772 890 l 783 939 q 983 930 918 930 q 1161 939 1053 930 z "},"L":{"ha":854,"x_min":-39,"x_max":860,"o":"m 860 273 q 762 -7 829 201 q 254 0 554 0 q -39 -7 141 0 l -24 40 q -9 43 -22 41 q 97 67 81 59 q 139 142 112 75 q 245 494 155 182 q 335 843 335 806 q 319 866 335 859 q 243 885 303 873 q 225 888 240 885 q 207 890 210 890 l 221 939 q 479 930 377 930 q 718 939 585 930 l 705 890 q 569 863 583 869 q 544 837 555 857 q 512 752 533 817 q 442 516 490 688 q 372 259 394 344 q 321 74 351 174 l 530 74 q 641 79 616 74 q 701 126 666 85 q 798 273 735 167 l 860 273 z "},"M":{"ha":1244,"x_min":-35,"x_max":1438,"o":"m 1438 939 l 1423 890 q 1311 867 1331 876 q 1277 827 1291 858 q 1219 650 1263 795 q 1127 332 1175 505 q 1074 132 1080 158 q 1068 109 1073 127 q 1064 86 1064 98 q 1082 65 1064 73 q 1173 46 1100 58 l 1188 43 q 1202 40 1199 40 l 1189 -7 q 949 0 1046 0 q 699 -7 844 0 l 713 40 q 775 53 720 40 q 843 76 831 65 q 887 185 854 87 q 964 439 920 283 l 1043 715 l 1040 718 l 530 0 l 469 0 l 397 747 l 395 747 l 283 336 q 227 129 239 175 q 220 92 220 110 q 236 69 220 78 q 340 40 253 60 l 328 -7 q 157 0 214 0 q -35 -7 146 0 l -21 40 q 57 59 -14 40 q 106 81 98 70 q 168 243 123 102 l 302 696 q 340 844 340 829 q 331 861 340 856 q 255 879 321 867 q 182 890 189 890 l 197 939 q 361 930 286 930 q 551 939 431 930 l 582 645 l 625 272 q 1093 939 1074 895 q 1271 930 1219 930 q 1438 939 1360 930 z "},"N":{"ha":983,"x_min":-35,"x_max":1187,"o":"m 1187 939 l 1174 890 q 1108 879 1159 890 q 1043 847 1058 867 q 1007 758 1029 827 l 870 294 l 783 -21 q 722 -28 726 -27 l 588 295 q 470 575 518 465 q 399 746 422 685 l 396 746 q 325 494 361 632 l 256 239 q 223 112 225 123 q 221 93 221 101 q 235 70 221 79 q 321 45 249 62 q 331 42 322 45 q 342 40 340 40 l 328 -7 q 157 0 233 0 q -35 -7 94 0 l -20 40 q -6 43 -18 41 q 88 66 68 58 q 120 100 108 73 q 186 301 132 127 q 290 651 239 474 q 340 842 340 828 q 332 860 340 854 q 258 878 323 866 q 183 890 192 890 l 197 939 q 372 930 328 930 q 519 939 444 930 l 790 298 l 878 622 q 933 840 933 825 q 915 864 933 854 q 811 890 897 873 l 823 939 q 1007 930 951 930 q 1187 939 1126 930 z "},"O":{"ha":1013,"x_min":114,"x_max":1055,"o":"m 734 961 q 974 871 893 961 q 1055 643 1055 781 q 970 317 1055 476 q 741 65 885 159 q 428 -28 596 -28 q 190 65 266 -28 q 114 302 114 158 q 196 607 114 446 q 420 864 279 768 q 734 961 562 961 m 493 50 q 606 89 555 50 q 717 221 657 127 q 810 434 777 315 q 844 667 844 553 q 804 831 844 771 q 688 890 764 890 q 511 795 594 890 q 375 547 428 701 q 322 283 322 394 q 493 50 322 50 z "},"P":{"ha":796,"x_min":-40,"x_max":916,"o":"m 221 939 q 272 936 241 936 l 447 930 l 689 939 q 854 894 793 939 q 916 762 916 849 q 814 533 916 633 q 532 433 713 433 q 415 444 477 433 q 349 207 379 320 q 319 85 319 93 q 332 66 319 72 q 411 50 345 60 q 486 40 477 40 l 472 -7 q 215 0 320 0 l -40 -7 l -25 40 q 95 66 83 61 q 120 100 106 72 q 177 272 133 129 q 278 622 220 415 q 335 842 335 829 q 327 859 335 852 q 278 876 319 866 q 205 890 238 886 l 221 939 m 435 513 q 497 509 470 509 q 663 576 602 509 q 724 732 724 644 q 694 828 724 790 q 611 865 665 865 q 534 857 583 865 l 435 513 z "},"Q":{"ha":1013,"x_min":83,"x_max":1054,"o":"m 164 102 q 114 290 114 183 q 199 611 114 451 q 426 866 283 771 q 733 961 569 961 q 971 877 888 961 q 1054 640 1054 793 q 974 323 1054 476 q 758 77 894 170 q 464 -16 623 -16 q 410 -14 441 -16 l 407 -17 q 745 -135 644 -135 q 913 -81 821 -135 l 943 -132 q 672 -261 745 -261 q 467 -147 598 -261 q 280 -11 363 -59 q 83 49 197 37 l 102 110 q 164 102 127 109 m 493 49 q 605 86 553 49 q 718 225 656 123 q 813 444 780 326 q 846 676 846 562 q 825 794 846 747 q 767 866 805 842 q 685 890 730 890 q 512 796 595 890 q 376 548 429 701 q 323 271 323 395 q 371 105 323 161 q 493 49 418 49 z "},"R":{"ha":970,"x_min":-39,"x_max":949,"o":"m 949 40 l 935 -7 q 754 0 800 0 q 604 -7 667 0 q 482 452 577 123 q 418 454 446 452 q 321 85 321 98 q 358 59 321 66 q 452 40 395 53 l 437 -7 q 201 0 326 0 q -39 -7 65 0 l -25 40 q 103 71 94 63 q 121 99 113 79 q 182 283 140 141 l 286 649 q 336 842 336 831 q 327 860 336 854 q 263 879 317 867 q 207 890 210 890 l 221 939 q 465 930 402 930 l 699 939 q 862 892 806 939 q 918 760 918 846 q 857 594 918 675 q 659 468 795 513 l 771 157 q 805 97 785 119 q 869 63 825 76 q 939 43 912 50 q 949 40 947 41 m 440 528 q 492 525 460 525 q 660 588 598 525 q 721 741 721 651 q 606 864 721 864 q 530 857 576 864 l 440 528 z "},"S":{"ha":753,"x_min":49,"x_max":832,"o":"m 832 899 q 778 681 800 804 q 774 661 774 663 l 708 665 q 695 820 707 781 q 645 875 684 859 q 567 892 605 892 q 464 854 504 892 q 424 762 424 817 q 451 682 424 723 q 562 555 477 642 q 678 414 646 472 q 710 289 710 356 q 608 68 710 165 q 322 -28 507 -28 q 49 31 180 -28 q 125 313 94 152 l 193 313 q 192 222 192 247 q 204 138 192 168 q 241 87 216 109 q 294 59 266 66 q 347 52 321 52 q 464 100 420 52 q 507 222 507 149 q 486 318 507 271 q 376 456 465 364 q 263 589 294 541 q 233 696 233 638 q 328 881 233 800 q 578 961 422 961 q 832 899 712 961 z "},"T":{"ha":940,"x_min":164,"x_max":1090,"o":"m 1090 939 q 1018 654 1052 825 l 962 654 q 958 753 958 704 q 951 826 958 806 q 923 851 944 846 q 843 856 902 856 l 753 856 q 617 376 690 650 q 543 87 543 102 q 554 68 543 74 q 661 45 566 62 q 671 43 663 45 q 685 40 682 40 l 671 -7 q 416 0 491 0 q 164 -7 300 0 l 178 40 q 211 46 191 43 q 306 67 287 60 q 335 100 326 75 q 382 245 345 125 l 475 553 q 561 856 530 741 l 475 856 q 393 850 418 856 q 346 820 368 844 q 290 727 323 795 q 256 654 257 660 l 195 654 q 273 939 246 813 q 673 930 422 930 q 1090 939 943 930 z "},"U":{"ha":983,"x_min":171,"x_max":1194,"o":"m 1194 939 l 1178 890 q 1066 863 1078 870 q 1043 834 1055 857 q 1004 727 1031 811 q 930 482 977 642 q 852 227 880 303 q 773 91 824 151 q 649 1 723 31 q 475 -28 574 -28 q 240 47 309 -28 q 171 218 171 121 q 212 432 171 296 q 284 691 249 557 q 319 843 319 825 q 300 867 319 859 q 192 890 281 875 l 205 939 q 437 930 326 930 q 685 939 550 930 l 671 890 q 606 878 660 890 q 543 854 552 865 q 501 760 526 831 q 452 596 488 722 q 386 358 403 429 q 370 237 370 288 q 389 160 370 196 q 445 103 408 123 q 538 83 483 83 q 651 110 604 83 q 728 174 698 136 q 781 274 758 213 q 839 458 805 334 l 906 703 q 939 836 939 824 q 919 864 939 854 q 817 890 900 873 l 831 939 q 1029 930 989 930 q 1194 939 1089 930 z "},"V":{"ha":956,"x_min":200,"x_max":1164,"o":"m 1164 939 l 1152 892 q 1143 889 1150 891 q 1091 876 1120 883 q 1043 852 1062 869 q 867 643 1023 835 l 578 286 q 342 -28 447 120 l 281 -28 q 319 464 299 163 q 339 817 339 764 q 332 849 339 840 q 286 869 325 859 l 200 892 l 214 939 q 454 930 370 930 q 699 939 580 930 l 685 892 l 652 882 q 570 853 590 866 q 541 809 549 841 q 520 627 533 777 l 490 288 l 493 285 l 865 791 q 901 851 901 840 q 888 873 901 865 q 828 889 874 881 q 812 892 819 889 l 828 939 q 1003 930 943 930 q 1164 939 1048 930 z "},"W":{"ha":1360,"x_min":195,"x_max":1567,"o":"m 1567 939 l 1552 890 q 1444 854 1466 869 q 1309 688 1423 840 l 1096 400 l 790 -28 l 726 -28 l 741 130 l 772 576 l 770 579 l 336 -28 l 273 -28 q 330 815 330 671 q 322 850 330 842 q 256 874 314 859 q 195 890 198 890 l 210 939 q 441 930 345 930 q 667 939 536 930 l 654 890 q 601 876 644 890 q 548 845 558 861 q 528 748 537 829 l 479 304 l 482 301 l 783 729 q 786 803 786 766 q 771 861 786 849 q 677 890 755 873 l 690 939 q 929 930 871 930 q 1149 939 996 930 l 1135 892 q 1005 844 1024 861 q 981 767 987 826 l 932 304 l 935 301 l 1263 781 q 1303 854 1303 839 q 1267 882 1303 873 q 1214 890 1232 890 l 1227 939 q 1413 930 1324 930 q 1567 939 1482 930 z "},"X":{"ha":1028,"x_min":-9,"x_max":1175,"o":"m 1175 939 l 1162 890 q 1059 855 1088 874 q 921 733 1029 836 l 720 549 q 689 519 715 546 l 777 197 q 816 84 803 102 q 893 54 829 67 q 962 40 956 40 l 951 -7 q 699 0 808 0 q 472 -7 584 0 l 486 40 q 513 46 494 43 q 589 69 570 59 q 608 98 608 79 q 589 189 608 116 l 541 379 q 334 179 383 229 q 269 111 286 129 q 253 78 253 94 q 266 60 253 66 q 326 43 279 54 l 342 40 l 329 -7 q 171 0 229 0 q -9 -7 163 0 l 5 40 q 68 58 38 42 q 222 186 98 75 q 518 465 345 298 l 447 726 q 409 843 418 828 q 375 867 399 859 q 281 890 351 876 l 294 939 q 528 930 406 930 q 771 939 628 930 l 760 890 q 612 825 612 863 q 616 794 612 815 l 665 606 q 799 734 715 652 q 896 831 883 816 q 908 860 908 846 q 825 890 908 884 l 840 939 q 1022 930 928 930 q 1175 939 1078 930 z "},"Y":{"ha":897,"x_min":168,"x_max":1107,"o":"m 1107 939 l 1095 890 q 1015 869 1037 880 q 955 821 987 857 q 862 707 934 798 l 633 414 l 557 130 q 546 86 546 94 q 555 67 546 73 q 626 51 564 62 q 689 40 687 40 l 673 -7 q 428 0 562 0 q 168 -7 290 0 l 182 40 q 255 53 193 40 q 325 74 316 65 q 357 149 334 83 q 413 323 381 214 q 444 437 444 433 l 347 786 q 340 810 345 793 q 320 855 331 846 q 255 877 310 863 q 196 890 200 890 l 211 939 q 452 930 373 930 q 689 939 545 930 l 676 890 q 566 858 596 872 q 536 825 536 844 q 608 515 536 817 l 764 729 q 831 825 821 807 q 842 854 842 844 q 820 874 842 867 q 758 890 798 882 l 770 939 q 936 930 886 930 q 1107 939 974 930 z "},"Z":{"ha":854,"x_min":4,"x_max":974,"o":"m 974 939 l 960 889 q 907 824 958 882 l 512 368 l 334 156 q 265 75 269 79 l 581 75 q 659 84 631 75 q 719 131 686 92 q 802 261 751 170 l 863 261 l 770 -7 q 397 0 560 0 q 4 -7 211 0 l 21 44 l 376 459 l 711 856 l 461 856 q 354 833 382 856 q 285 728 326 811 q 265 690 279 715 l 207 690 q 261 873 244 809 q 278 939 278 938 q 647 930 434 930 q 974 939 808 930 z "},"[":{"ha":433,"x_min":-50,"x_max":596,"o":"m 596 977 l 578 907 l 457 907 l 129 -210 l 252 -210 l 229 -279 q 96 -275 140 -275 q -50 -279 38 -275 l 179 487 l 318 977 q 463 974 393 974 q 596 977 522 974 z "},"\\":{"ha":782,"x_min":140,"x_max":770,"o":"m 770 -3 l 636 -3 l 140 989 l 275 989 l 770 -3 z "},"]":{"ha":419,"x_min":-85,"x_max":561,"o":"m 561 977 l 332 210 l 193 -279 q 49 -277 118 -277 q -85 -279 -12 -277 l -66 -210 l 54 -210 l 382 907 l 260 907 l 282 977 q 415 972 370 972 q 561 977 473 972 z "},"^":{"ha":796,"x_min":199,"x_max":807,"o":"m 807 501 l 699 501 l 498 848 l 302 501 l 199 501 l 478 989 l 533 989 l 807 501 z "},"_":{"ha":694,"x_min":-8,"x_max":703,"o":"m 703 -174 l -8 -174 l -8 -104 l 703 -104 l 703 -174 z "},"`":{"ha":463,"x_min":205,"x_max":471,"o":"m 471 714 l 411 714 q 346 787 363 765 q 268 869 328 808 q 205 933 208 930 l 215 950 q 385 950 298 948 q 461 737 434 806 q 471 714 465 732 z "},"a":{"ha":681,"x_min":46,"x_max":685,"o":"m 685 596 q 583 329 627 481 q 539 151 539 176 q 551 132 539 132 q 633 187 570 132 l 663 154 q 506 24 577 68 q 400 -20 435 -20 q 363 14 363 -20 q 393 138 363 50 q 407 176 396 143 l 404 179 q 262 28 321 77 q 157 -20 204 -20 q 75 30 104 -20 q 46 160 46 79 q 181 484 46 336 q 513 631 317 631 q 635 624 538 631 q 675 621 660 621 l 685 596 m 497 541 q 432 559 460 559 q 284 443 354 559 q 215 205 215 326 q 262 129 215 129 q 355 191 297 129 q 481 484 413 252 l 497 541 z "},"b":{"ha":652,"x_min":60,"x_max":644,"o":"m 301 436 q 401 545 344 491 q 484 615 458 600 q 534 631 509 631 q 613 586 581 631 q 644 460 644 541 q 523 131 644 281 q 215 -20 401 -20 q 100 10 140 -20 q 60 96 60 40 q 89 241 60 142 l 248 783 q 254 806 248 785 q 260 838 260 827 q 237 857 260 857 q 171 851 216 857 l 182 899 q 453 989 327 926 l 481 964 q 314 489 393 747 q 298 439 313 481 l 301 436 m 282 52 q 412 156 348 52 q 476 389 476 260 q 435 479 476 479 q 303 357 385 479 q 221 126 221 234 q 282 52 221 52 z "},"c":{"ha":521,"x_min":46,"x_max":607,"o":"m 607 597 q 551 432 575 524 l 496 436 q 414 567 496 567 q 277 453 338 567 q 216 221 216 338 q 232 136 216 175 q 290 97 248 97 q 460 192 348 97 l 496 150 q 193 -20 326 -20 q 83 32 121 -20 q 46 176 46 84 q 103 392 46 283 q 256 566 161 500 q 461 631 352 631 q 607 597 534 631 z "},"d":{"ha":694,"x_min":47,"x_max":811,"o":"m 811 962 q 606 393 667 614 q 546 154 546 172 q 562 134 546 134 q 642 187 581 134 l 671 155 q 515 26 593 72 q 407 -20 438 -20 q 381 -11 393 -20 q 370 17 370 -1 q 412 174 370 35 l 410 176 q 164 -20 260 -20 q 80 28 113 -20 q 47 165 47 75 q 169 487 47 344 q 447 631 290 631 q 525 611 481 631 q 590 839 590 808 q 564 859 590 859 q 500 851 538 859 l 513 900 q 782 989 640 921 l 811 962 m 500 518 q 411 557 454 557 q 277 439 334 557 q 221 214 221 321 q 269 131 221 131 q 376 209 315 131 q 500 518 437 286 z "},"e":{"ha":550,"x_min":47,"x_max":591,"o":"m 494 119 q 192 -20 321 -20 q 85 31 123 -20 q 47 171 47 82 q 175 486 47 340 q 482 631 303 631 q 591 547 591 631 q 500 380 591 454 q 220 268 410 307 q 218 223 218 242 q 300 94 218 94 q 361 109 328 94 q 460 163 395 124 l 494 119 m 229 329 q 387 410 337 357 q 437 522 437 464 q 401 566 437 566 q 312 510 359 566 q 229 329 265 455 z "},"f":{"ha":406,"x_min":-254,"x_max":732,"o":"m 732 950 q 681 817 708 907 q 673 794 681 811 l 618 802 q 541 925 618 925 q 461 872 496 925 q 370 608 426 819 q 522 612 484 608 l 530 597 q 492 530 506 565 q 351 539 451 539 l 223 59 q 68 -213 173 -134 q -127 -292 -37 -292 q -254 -252 -186 -292 q -184 -134 -216 -199 l -163 -134 q -116 -190 -142 -172 q -66 -207 -90 -207 q 5 -153 -23 -207 q 60 15 33 -98 l 191 539 q 97 534 125 539 l 111 585 q 208 618 163 597 q 277 817 244 762 q 397 930 311 872 q 582 989 484 989 q 732 950 661 989 z "},"g":{"ha":608,"x_min":-107,"x_max":676,"o":"m 676 597 q 640 536 656 569 q 570 541 604 541 q 590 461 590 499 q 512 275 590 363 q 269 178 435 187 q 235 126 235 139 q 272 94 235 109 q 419 37 342 71 q 523 -24 496 3 q 549 -89 549 -51 q 443 -235 549 -178 q 184 -292 337 -292 q -24 -254 58 -292 q -107 -167 -107 -216 q -66 -100 -107 -130 q 98 -20 -26 -69 q 64 21 64 0 q 203 172 64 63 q 218 183 216 182 q 77 340 77 208 q 168 543 77 456 q 397 631 258 631 q 501 611 450 631 q 515 606 515 606 q 668 612 594 606 l 676 597 m 296 232 q 393 318 356 232 q 431 497 431 405 q 370 583 431 583 q 274 489 314 583 q 233 311 233 395 q 296 232 233 232 m 151 -45 q 53 -147 53 -103 q 106 -205 53 -183 q 227 -227 159 -227 q 334 -209 285 -227 q 383 -163 383 -191 q 351 -127 383 -142 l 151 -45 z "},"h":{"ha":708,"x_min":26,"x_max":692,"o":"m 692 154 q 536 23 607 66 q 416 -20 465 -20 q 384 -7 397 -20 q 370 22 370 5 q 380 76 370 42 l 463 319 q 505 458 505 446 q 488 479 505 479 q 389 407 456 479 q 286 270 321 334 q 195 0 250 205 q 26 -7 88 0 q 107 252 59 92 l 259 758 q 278 833 278 824 q 253 854 278 854 q 187 847 231 854 l 201 896 q 468 987 368 935 l 497 961 q 397 694 441 832 l 321 450 q 300 386 306 397 l 302 383 q 488 573 403 515 q 628 631 572 631 q 671 616 653 631 q 689 574 689 602 q 628 353 689 522 q 567 149 567 176 q 579 131 567 131 q 664 187 599 131 l 692 154 z "},"i":{"ha":406,"x_min":58,"x_max":465,"o":"m 393 939 q 445 917 425 939 q 465 863 465 895 q 436 775 465 817 q 364 733 407 733 q 313 753 335 733 q 290 814 290 774 q 320 899 290 860 q 393 939 349 939 m 82 456 q 353 631 280 631 q 387 593 387 631 q 363 500 387 574 l 252 172 q 248 143 248 153 q 260 129 248 129 q 346 186 279 129 l 378 154 q 217 26 294 72 q 100 -20 141 -20 q 58 16 58 -20 q 119 218 58 47 l 168 354 q 195 447 195 431 q 182 464 195 464 q 113 419 169 464 l 82 456 z "},"j":{"ha":376,"x_min":-232,"x_max":452,"o":"m 379 939 q 431 917 411 939 q 452 863 452 895 q 422 775 452 817 q 349 733 393 733 q 299 753 321 733 q 277 814 277 774 q 306 899 277 860 q 379 939 335 939 m 56 443 q 234 583 157 535 q 342 631 311 631 q 368 621 356 631 q 380 590 380 610 q 339 434 380 575 l 248 131 q 174 -89 199 -32 q 103 -189 149 -146 q 1 -262 58 -232 q -115 -292 -57 -292 q -232 -253 -166 -292 q -163 -140 -191 -197 l -142 -140 q -54 -210 -113 -210 q -18 -200 -33 -210 q 13 -158 -2 -190 q 50 -45 28 -125 l 149 323 q 178 443 178 432 q 164 461 178 461 q 147 454 154 461 q 85 407 89 410 l 56 443 z "},"k":{"ha":694,"x_min":25,"x_max":722,"o":"m 325 457 q 635 631 489 631 q 699 611 675 631 q 722 555 722 591 q 435 302 722 374 l 498 182 q 519 143 498 178 q 557 109 540 109 q 647 164 578 109 l 679 129 q 457 -20 528 -20 q 413 7 433 -20 q 351 136 393 34 q 278 279 314 224 l 196 0 q 25 -7 79 0 q 278 836 278 804 q 254 857 278 857 q 225 854 250 857 q 187 851 193 851 l 201 899 q 469 989 388 945 l 500 961 q 322 460 429 799 l 325 457 m 286 336 q 508 404 448 348 q 568 518 568 459 q 539 549 568 549 q 455 507 507 549 q 358 420 402 465 q 301 361 313 376 q 286 336 289 347 z "},"l":{"ha":390,"x_min":41,"x_max":501,"o":"m 501 961 q 382 635 448 836 q 284 325 316 435 l 235 154 q 233 146 233 149 q 244 134 233 134 q 315 176 266 134 q 328 187 317 179 l 361 154 q 79 -20 179 -20 q 41 14 41 -20 q 80 157 41 30 l 172 462 q 279 831 279 813 q 273 851 279 846 q 249 856 266 856 q 189 851 228 856 l 201 896 q 471 989 373 933 l 501 961 z "},"m":{"ha":1055,"x_min":39,"x_max":1038,"o":"m 1038 151 q 883 26 958 72 q 760 -20 808 -20 q 714 21 714 -20 q 738 117 714 41 q 785 257 761 193 q 824 373 802 303 q 846 458 846 443 q 828 481 846 481 q 731 406 801 481 q 628 264 661 332 q 539 0 595 197 q 368 -7 418 0 q 509 454 509 405 q 490 476 509 476 q 401 403 467 476 q 299 264 335 330 q 214 22 262 199 q 208 0 210 3 q 39 -7 93 0 q 133 278 86 120 q 180 444 180 435 q 165 463 180 463 q 145 452 157 463 l 96 411 l 65 446 q 228 585 159 538 q 336 631 298 631 q 371 596 371 631 q 296 361 371 531 l 298 358 q 635 631 511 631 q 688 574 688 631 q 624 361 688 516 l 627 358 q 971 631 835 631 q 1035 572 1035 631 q 1029 520 1035 544 l 914 176 q 907 146 907 159 q 921 127 907 127 q 1006 187 941 127 l 1038 151 z "},"n":{"ha":724,"x_min":40,"x_max":707,"o":"m 707 153 q 431 -20 520 -20 q 386 22 386 -20 q 390 53 386 33 q 420 148 395 73 l 511 427 q 518 458 518 443 q 501 478 518 478 q 431 437 476 478 q 344 339 385 395 q 278 222 302 283 q 208 0 254 161 q 40 -7 86 0 q 172 412 142 311 q 179 443 179 427 q 167 461 179 461 q 128 440 157 461 q 94 414 99 418 l 64 446 q 336 631 254 631 q 370 595 370 631 q 294 363 370 552 l 297 359 q 642 631 505 631 q 704 572 704 631 q 699 531 704 553 l 583 168 q 579 147 579 155 q 593 134 579 134 q 676 186 616 134 l 707 153 z "},"o":{"ha":636,"x_min":47,"x_max":632,"o":"m 456 631 q 586 579 540 631 q 632 431 632 528 q 575 209 632 313 q 422 42 517 104 q 228 -20 328 -20 q 97 37 146 -20 q 47 187 47 94 q 105 401 47 297 q 257 568 162 506 q 456 631 353 631 m 285 43 q 409 180 351 43 q 467 450 467 318 q 395 567 467 567 q 269 419 323 567 q 215 170 215 272 q 234 77 215 111 q 285 43 252 43 z "},"p":{"ha":665,"x_min":-144,"x_max":664,"o":"m 301 412 q 443 573 376 515 q 550 631 510 631 q 632 582 600 631 q 664 456 664 534 q 546 127 664 275 q 298 -20 429 -20 q 199 4 248 -20 q 147 -189 147 -152 q 171 -215 147 -205 q 260 -235 195 -226 l 245 -283 q 60 -277 128 -277 q -144 -283 -3 -277 l -131 -235 l -70 -221 q -31 -206 -42 -214 q -1 -147 -19 -198 q 42 -14 18 -96 l 109 204 l 163 403 q 170 446 170 424 q 155 461 170 461 q 96 421 140 461 q 79 407 85 411 l 52 439 q 218 581 141 531 q 328 631 295 631 q 352 620 343 631 q 361 595 361 609 q 298 415 361 549 l 301 412 m 222 97 q 309 57 269 57 q 438 172 381 57 q 494 399 494 288 q 453 479 494 479 q 356 411 414 479 q 222 97 298 343 z "},"q":{"ha":665,"x_min":47,"x_max":693,"o":"m 693 582 q 606 369 654 526 l 503 26 q 447 -186 447 -159 q 463 -213 447 -204 q 549 -235 478 -221 l 534 -283 q 339 -277 364 -277 q 132 -283 231 -277 l 146 -235 q 231 -221 197 -228 q 273 -203 264 -214 q 296 -154 282 -191 q 326 -61 309 -116 l 355 36 q 389 140 368 78 l 386 143 q 251 11 295 42 q 161 -20 206 -20 q 80 23 113 -20 q 47 151 47 66 q 184 485 47 339 q 496 631 320 631 q 682 604 538 631 l 693 582 m 509 541 q 433 558 465 558 q 284 444 352 558 q 216 211 216 330 q 271 131 216 131 q 325 152 296 131 q 383 213 353 172 q 428 297 413 254 l 460 387 q 509 541 477 436 z "},"r":{"ha":507,"x_min":37,"x_max":607,"o":"m 607 615 q 541 444 572 535 l 498 447 q 476 464 492 464 q 416 423 451 464 q 335 309 382 382 q 272 196 288 235 q 212 18 256 157 q 205 0 207 3 q 37 -7 99 0 q 179 443 179 399 q 165 461 179 461 q 94 415 151 461 l 65 446 q 223 583 153 534 q 326 631 293 631 q 359 595 359 631 q 351 533 359 561 l 260 289 l 262 286 q 431 566 376 500 q 550 631 486 631 q 607 615 570 631 z "},"s":{"ha":478,"x_min":-18,"x_max":513,"o":"m 513 590 q 465 450 481 506 l 421 450 q 317 575 408 575 q 266 559 287 575 q 245 518 245 543 q 261 473 245 498 q 329 397 277 448 q 447 199 447 286 q 367 47 447 114 q 158 -20 286 -20 q -18 35 56 -20 q 50 178 21 109 l 83 171 q 125 84 87 112 q 214 57 163 57 q 275 77 254 57 q 296 123 296 97 q 217 259 296 175 q 120 378 137 345 q 103 444 103 412 q 172 576 103 521 q 345 631 241 631 q 513 590 430 631 z "},"t":{"ha":419,"x_min":43,"x_max":521,"o":"m 521 602 q 481 532 499 571 q 343 539 425 537 q 275 315 315 457 q 235 147 235 172 q 252 126 235 126 q 367 199 286 126 l 399 163 q 220 24 297 67 q 98 -20 143 -20 q 59 -5 75 -20 q 43 36 43 9 q 64 130 43 60 l 187 541 q 100 539 137 541 l 113 586 q 372 804 270 637 l 432 804 q 364 608 380 661 q 514 616 488 608 l 521 602 z "},"u":{"ha":724,"x_min":61,"x_max":729,"o":"m 729 623 q 620 289 658 421 q 582 144 582 156 q 595 127 582 127 q 681 184 609 127 l 710 153 q 560 29 637 77 q 440 -20 484 -20 q 396 12 396 -20 q 427 132 396 44 q 468 243 457 219 l 465 245 q 122 -20 265 -20 q 61 36 61 -20 q 74 106 61 65 l 130 280 q 176 419 174 412 q 183 450 183 440 q 172 463 183 463 q 100 412 160 463 l 71 446 q 343 631 263 631 q 382 590 382 631 q 315 366 382 538 q 271 241 295 313 q 248 153 248 169 q 265 131 248 131 q 333 174 285 131 q 425 277 380 217 q 492 398 469 338 q 555 603 515 458 q 729 623 648 606 z "},"v":{"ha":593,"x_min":41,"x_max":639,"o":"m 566 637 q 639 525 639 604 q 598 400 639 466 q 447 211 557 334 q 228 -20 338 87 l 172 -20 q 174 163 174 90 q 167 388 174 326 q 156 461 160 450 q 139 473 152 473 q 69 424 129 473 l 41 456 q 273 631 212 631 q 304 620 290 631 q 328 559 318 609 q 338 367 337 510 q 340 197 339 224 q 464 357 416 281 q 511 472 511 433 q 471 509 511 509 l 461 532 q 566 637 513 574 z "},"w":{"ha":926,"x_min":37,"x_max":974,"o":"m 903 642 q 974 525 974 606 q 926 382 974 452 q 772 197 878 313 q 564 -20 666 81 l 510 -20 l 489 358 l 486 358 l 228 -20 l 170 -20 q 161 438 170 340 q 136 472 157 472 q 66 425 127 472 l 37 457 q 272 631 215 631 q 322 565 309 631 q 336 261 336 499 l 339 261 l 595 631 l 652 631 l 672 201 q 846 473 846 380 q 842 495 846 486 q 832 507 838 505 q 808 509 827 509 l 798 532 q 903 642 855 580 z "},"x":{"ha":652,"x_min":-32,"x_max":703,"o":"m 703 608 q 659 471 678 543 l 632 471 q 585 511 614 511 q 520 479 553 511 q 421 343 488 446 q 454 219 433 286 q 482 139 475 153 q 501 126 489 126 q 599 203 528 126 l 635 172 q 497 34 570 87 q 386 -20 424 -20 q 334 39 349 -20 l 298 176 q 61 -20 174 -20 q -32 12 17 -20 q 18 135 -3 69 l 43 132 q 98 93 69 93 q 160 118 127 93 q 262 239 193 142 q 277 257 267 247 q 241 381 267 296 q 210 477 215 467 q 193 486 205 486 q 118 435 173 486 q 97 414 111 427 l 61 443 q 205 584 142 536 q 301 631 268 631 q 340 601 325 631 q 385 467 356 570 q 396 428 391 439 q 532 604 494 578 q 623 631 571 631 q 703 608 661 631 z "},"y":{"ha":665,"x_min":-103,"x_max":684,"o":"m 603 637 q 684 522 684 601 q 642 385 684 467 q 468 136 600 303 q 246 -127 337 -31 q 100 -257 155 -223 q -3 -292 45 -292 q -103 -258 -51 -292 q -45 -138 -61 -176 l -21 -138 q 41 -178 9 -178 q 240 -32 122 -178 q 211 327 222 232 q 188 449 199 422 q 164 475 177 475 q 90 422 149 475 l 61 454 q 298 629 234 629 q 342 593 326 629 q 371 475 358 557 q 400 154 383 393 q 519 334 479 254 q 559 454 559 414 q 510 510 559 503 l 500 534 q 603 637 555 576 z "},"z":{"ha":550,"x_min":-43,"x_max":597,"o":"m 597 581 q 443 410 508 474 q 243 229 377 347 q 97 92 145 142 l 100 89 q 253 158 196 158 q 330 146 290 158 q 421 126 399 126 q 513 204 469 126 l 554 183 q 462 32 502 74 q 380 -9 422 -9 q 246 9 336 -9 q 109 28 155 28 q -11 -12 43 28 l -43 20 q 150 243 38 139 q 429 489 262 347 l 427 492 q 330 456 374 456 q 275 463 296 456 q 199 484 212 484 q 125 415 168 484 l 82 433 q 237 616 160 616 q 340 593 268 616 q 439 575 404 575 q 566 616 498 575 l 597 581 z "},"{":{"ha":550,"x_min":178,"x_max":553,"o":"m 553 -281 q 338 -205 416 -283 q 273 -62 273 -142 q 294 62 273 -7 q 310 168 310 123 q 178 310 310 285 l 178 351 q 310 498 310 374 q 296 600 310 546 q 275 721 275 668 q 339 864 275 795 q 553 940 402 932 l 553 909 q 421 782 421 884 q 436 672 421 728 q 454 554 454 594 q 398 420 454 484 q 232 334 342 356 l 232 330 q 405 234 353 298 q 456 107 456 171 q 439 0 456 66 q 422 -115 422 -65 q 553 -249 422 -224 l 553 -281 z "},"|":{"ha":782,"x_min":390,"x_max":517,"o":"m 517 -165 l 390 -165 l 390 989 l 517 989 l 517 -165 z "},"}":{"ha":550,"x_min":127,"x_max":503,"o":"m 503 309 q 371 161 371 286 q 385 60 371 113 q 406 -61 406 -8 q 342 -204 406 -136 q 127 -281 279 -273 l 127 -250 q 260 -122 260 -224 q 244 -12 260 -68 q 227 106 227 66 q 282 240 227 176 q 449 326 338 304 l 449 329 q 276 426 327 362 q 225 553 225 489 q 241 660 225 593 q 258 775 258 724 q 127 908 258 884 l 127 940 q 336 871 266 940 q 407 722 407 802 q 386 597 407 667 q 371 492 371 536 q 503 350 371 375 l 503 309 z "},"~":{"ha":926,"x_min":155,"x_max":901,"o":"m 901 572 q 842 397 895 454 q 711 340 788 340 q 610 358 661 340 q 456 419 559 376 q 315 461 359 461 q 199 340 218 461 l 155 340 q 213 517 159 462 q 339 572 268 572 q 427 559 376 572 q 600 493 479 545 q 741 450 699 450 q 819 480 787 450 q 859 572 851 511 l 901 572 z "},"Ä":{"ha":954,"x_min":-43,"x_max":985,"o":"m 922 40 l 909 -7 q 682 0 791 0 q 422 -7 562 0 l 436 40 q 445 43 437 41 q 565 89 547 69 q 597 239 583 108 q 603 282 600 272 l 361 282 q 254 136 286 183 q 221 75 221 90 q 232 57 221 62 q 290 45 242 53 q 300 42 294 44 q 309 40 307 40 l 294 -7 q 131 0 206 0 q -43 -7 60 0 l -29 40 l 18 52 q 74 76 55 62 q 194 211 93 90 q 515 616 294 332 q 778 961 736 899 l 839 961 q 802 476 819 772 q 785 117 785 180 q 791 86 785 96 q 825 67 798 77 q 922 40 852 58 m 642 657 l 639 660 q 414 351 433 375 l 610 351 l 628 533 q 642 657 637 631 m 922 1219 q 967 1201 949 1219 q 985 1149 985 1183 q 960 1074 985 1107 q 899 1040 935 1040 q 854 1060 873 1040 q 835 1115 835 1079 q 860 1184 835 1149 q 922 1219 886 1219 m 694 1219 q 739 1201 722 1219 q 757 1149 757 1183 q 732 1074 757 1107 q 671 1040 707 1040 q 626 1060 645 1040 q 607 1115 607 1079 q 633 1184 607 1149 q 694 1219 659 1219 z "},"Å":{"ha":954,"x_min":-43,"x_max":926,"o":"m 922 40 l 909 -7 q 682 0 791 0 q 422 -7 562 0 l 436 40 q 445 43 437 41 q 565 89 547 69 q 597 239 583 108 q 603 282 600 272 l 361 282 q 254 136 286 183 q 221 75 221 90 q 232 57 221 62 q 290 45 242 53 q 300 42 294 44 q 309 40 307 40 l 294 -7 q 131 0 206 0 q -43 -7 60 0 l -29 40 l 18 52 q 74 76 55 62 q 194 211 93 90 q 515 616 294 332 q 778 961 736 899 l 839 961 q 802 476 819 772 q 785 117 785 180 q 791 86 785 96 q 825 67 798 77 q 922 40 852 58 m 642 657 l 639 660 q 414 351 433 375 l 610 351 l 628 533 q 642 657 637 631 m 785 1270 q 884 1228 842 1270 q 926 1128 926 1186 q 884 1028 926 1069 q 785 986 842 986 q 685 1028 726 986 q 643 1128 643 1069 q 685 1228 643 1186 q 785 1270 726 1270 m 783 1053 q 835 1074 814 1053 q 857 1126 857 1095 q 835 1178 857 1157 q 783 1200 814 1200 q 731 1178 753 1200 q 709 1126 709 1157 q 731 1074 709 1095 q 783 1053 753 1053 z "},"Ç":{"ha":897,"x_min":117,"x_max":1028,"o":"m 1028 896 q 951 639 964 718 l 888 643 q 884 787 888 766 q 830 866 875 844 q 729 888 785 888 q 446 718 565 888 q 328 346 328 549 q 382 164 328 232 q 538 97 437 97 q 665 123 600 97 q 828 216 730 149 l 871 160 q 511 -24 686 3 q 465 -69 490 -43 q 526 -95 507 -72 q 545 -140 545 -118 q 459 -248 545 -208 q 210 -293 373 -287 l 204 -239 q 347 -211 302 -228 q 392 -167 392 -195 q 366 -142 392 -142 q 329 -151 351 -142 l 313 -121 q 416 -26 370 -74 q 194 77 271 -17 q 117 314 117 171 q 201 630 117 477 q 429 872 285 783 q 742 961 572 961 q 1028 896 878 961 z "},"É":{"ha":882,"x_min":-36,"x_max":970,"o":"m 970 939 q 905 689 937 840 l 852 689 q 846 833 849 821 q 824 853 842 846 q 751 860 805 860 l 543 860 l 446 525 l 547 525 q 609 532 588 525 q 655 569 631 538 q 704 653 679 600 l 760 653 q 661 301 688 426 l 606 301 q 611 414 611 377 q 596 447 611 437 q 530 456 581 456 l 425 456 l 387 323 l 321 75 l 572 75 q 655 83 630 75 q 709 127 681 92 q 798 261 737 163 l 856 261 q 762 -7 817 161 l 313 0 q -36 -7 149 0 l -24 40 q 102 69 83 58 q 161 212 121 80 l 270 584 q 338 844 338 823 q 327 864 338 858 q 210 890 316 871 l 222 939 q 542 930 351 930 q 970 939 755 930 m 844 1232 q 786 1172 842 1227 q 712 1094 730 1116 q 639 1013 694 1072 l 579 1013 q 665 1249 633 1145 q 835 1249 752 1247 l 844 1232 z "},"Ñ":{"ha":983,"x_min":-35,"x_max":1187,"o":"m 1187 939 l 1174 890 q 1108 879 1159 890 q 1043 847 1058 867 q 1007 758 1029 827 l 870 294 l 783 -21 q 722 -28 726 -27 l 588 295 q 470 575 518 465 q 399 746 422 685 l 396 746 q 325 494 361 632 l 256 239 q 223 112 225 123 q 221 93 221 101 q 235 70 221 79 q 321 45 249 62 q 331 42 322 45 q 342 40 340 40 l 328 -7 q 157 0 233 0 q -35 -7 94 0 l -20 40 q -6 43 -18 41 q 88 66 68 58 q 120 100 108 73 q 186 301 132 127 q 290 651 239 474 q 340 842 340 828 q 332 860 340 854 q 258 878 323 866 q 183 890 192 890 l 197 939 q 372 930 328 930 q 519 939 444 930 l 790 298 l 878 622 q 933 840 933 825 q 915 864 933 854 q 811 890 897 873 l 823 939 q 1007 930 951 930 q 1187 939 1126 930 m 958 1215 q 818 1038 894 1038 q 724 1074 788 1038 q 631 1111 656 1111 q 561 1038 591 1111 l 501 1038 q 564 1167 526 1120 q 639 1215 602 1215 q 739 1182 681 1215 q 828 1141 812 1141 q 862 1156 848 1141 q 899 1215 877 1170 l 958 1215 z "},"Ö":{"ha":1013,"x_min":114,"x_max":1055,"o":"m 734 961 q 974 871 893 961 q 1055 643 1055 781 q 970 317 1055 476 q 741 65 885 159 q 428 -28 596 -28 q 190 65 266 -28 q 114 302 114 158 q 196 607 114 446 q 420 864 279 768 q 734 961 562 961 m 493 50 q 606 89 555 50 q 717 221 657 127 q 810 434 777 315 q 844 667 844 553 q 804 831 844 771 q 688 890 764 890 q 511 795 594 890 q 375 547 428 701 q 322 283 322 394 q 493 50 322 50 m 896 1219 q 941 1201 923 1219 q 958 1149 958 1183 q 933 1074 958 1107 q 872 1040 909 1040 q 827 1060 846 1040 q 808 1115 808 1079 q 834 1184 808 1149 q 896 1219 859 1219 m 668 1219 q 713 1201 695 1219 q 730 1149 730 1183 q 706 1074 730 1107 q 644 1040 681 1040 q 600 1060 618 1040 q 581 1115 581 1079 q 606 1184 581 1149 q 668 1219 632 1219 z "},"Ü":{"ha":983,"x_min":171,"x_max":1194,"o":"m 1194 939 l 1178 890 q 1066 863 1078 870 q 1043 834 1055 857 q 1004 727 1031 811 q 930 482 977 642 q 852 227 880 303 q 773 91 824 151 q 649 1 723 31 q 475 -28 574 -28 q 240 47 309 -28 q 171 218 171 121 q 212 432 171 296 q 284 691 249 557 q 319 843 319 825 q 300 867 319 859 q 192 890 281 875 l 205 939 q 437 930 326 930 q 685 939 550 930 l 671 890 q 606 878 660 890 q 543 854 552 865 q 501 760 526 831 q 452 596 488 722 q 386 358 403 429 q 370 237 370 288 q 389 160 370 196 q 445 103 408 123 q 538 83 483 83 q 651 110 604 83 q 728 174 698 136 q 781 274 758 213 q 839 458 805 334 l 906 703 q 939 836 939 824 q 919 864 939 854 q 817 890 900 873 l 831 939 q 1029 930 989 930 q 1194 939 1089 930 m 882 1219 q 927 1201 909 1219 q 945 1149 945 1183 q 920 1074 945 1107 q 859 1040 895 1040 q 814 1060 833 1040 q 795 1115 795 1079 q 820 1184 795 1149 q 882 1219 846 1219 m 654 1219 q 699 1201 682 1219 q 717 1149 717 1183 q 692 1074 717 1107 q 631 1040 667 1040 q 586 1060 605 1040 q 567 1115 567 1079 q 593 1184 567 1149 q 654 1219 618 1219 z "},"á":{"ha":681,"x_min":46,"x_max":685,"o":"m 685 596 q 583 329 627 481 q 539 151 539 176 q 551 132 539 132 q 633 187 570 132 l 663 154 q 506 24 577 68 q 400 -20 435 -20 q 363 14 363 -20 q 393 138 363 50 q 407 176 396 143 l 404 179 q 262 28 321 77 q 157 -20 204 -20 q 75 30 104 -20 q 46 160 46 79 q 181 484 46 336 q 513 631 317 631 q 635 624 538 631 q 675 621 660 621 l 685 596 m 497 541 q 432 559 460 559 q 284 443 354 559 q 215 205 215 326 q 262 129 215 129 q 355 191 297 129 q 481 484 413 252 l 497 541 m 661 918 q 603 858 659 913 q 529 780 547 802 q 456 699 511 758 l 396 699 q 482 935 450 831 q 652 935 569 933 l 661 918 z "},"à":{"ha":681,"x_min":46,"x_max":685,"o":"m 685 596 q 583 329 627 481 q 539 151 539 176 q 551 132 539 132 q 633 187 570 132 l 663 154 q 506 24 577 68 q 400 -20 435 -20 q 363 14 363 -20 q 393 138 363 50 q 407 176 396 143 l 404 179 q 262 28 321 77 q 157 -20 204 -20 q 75 30 104 -20 q 46 160 46 79 q 181 484 46 336 q 513 631 317 631 q 635 624 538 631 q 675 621 660 621 l 685 596 m 497 541 q 432 559 460 559 q 284 443 354 559 q 215 205 215 326 q 262 129 215 129 q 355 191 297 129 q 481 484 413 252 l 497 541 m 594 697 l 534 697 q 469 770 487 748 q 391 852 452 791 q 329 916 331 913 l 338 933 q 508 933 421 931 q 585 720 557 789 q 594 697 588 715 z "},"â":{"ha":681,"x_min":46,"x_max":685,"o":"m 685 596 q 583 329 627 481 q 539 151 539 176 q 551 132 539 132 q 633 187 570 132 l 663 154 q 506 24 577 68 q 400 -20 435 -20 q 363 14 363 -20 q 393 138 363 50 q 407 176 396 143 l 404 179 q 262 28 321 77 q 157 -20 204 -20 q 75 30 104 -20 q 46 160 46 79 q 181 484 46 336 q 513 631 317 631 q 635 624 538 631 q 675 621 660 621 l 685 596 m 497 541 q 432 559 460 559 q 284 443 354 559 q 215 205 215 326 q 262 129 215 129 q 355 191 297 129 q 481 484 413 252 l 497 541 m 664 705 l 602 705 q 522 822 534 805 l 357 705 l 281 705 q 377 811 313 735 q 475 922 441 886 q 539 919 507 919 q 614 922 566 919 q 664 705 631 824 z "},"ä":{"ha":681,"x_min":46,"x_max":696,"o":"m 685 596 q 583 329 627 481 q 539 151 539 176 q 551 132 539 132 q 633 187 570 132 l 663 154 q 506 24 577 68 q 400 -20 435 -20 q 363 14 363 -20 q 393 138 363 50 q 407 176 396 143 l 404 179 q 262 28 321 77 q 157 -20 204 -20 q 75 30 104 -20 q 46 160 46 79 q 181 484 46 336 q 513 631 317 631 q 635 624 538 631 q 675 621 660 621 l 685 596 m 497 541 q 432 559 460 559 q 284 443 354 559 q 215 205 215 326 q 262 129 215 129 q 355 191 297 129 q 481 484 413 252 l 497 541 m 633 905 q 678 887 661 905 q 696 836 696 869 q 671 760 696 793 q 610 726 646 726 q 565 746 584 726 q 546 801 546 765 q 571 870 546 836 q 633 905 597 905 m 406 905 q 450 887 433 905 q 468 836 468 869 q 443 760 468 793 q 382 726 418 726 q 337 746 356 726 q 318 801 318 765 q 344 870 318 836 q 406 905 370 905 z "},"ã":{"ha":681,"x_min":46,"x_max":738,"o":"m 685 596 q 583 329 627 481 q 539 151 539 176 q 551 132 539 132 q 633 187 570 132 l 663 154 q 506 24 577 68 q 400 -20 435 -20 q 363 14 363 -20 q 393 138 363 50 q 407 176 396 143 l 404 179 q 262 28 321 77 q 157 -20 204 -20 q 75 30 104 -20 q 46 160 46 79 q 181 484 46 336 q 513 631 317 631 q 635 624 538 631 q 675 621 660 621 l 685 596 m 497 541 q 432 559 460 559 q 284 443 354 559 q 215 205 215 326 q 262 129 215 129 q 355 191 297 129 q 481 484 413 252 l 497 541 m 738 901 q 597 724 673 724 q 503 760 568 724 q 410 797 436 797 q 340 724 371 797 l 281 724 q 344 853 306 806 q 418 901 382 901 q 519 868 460 901 q 608 827 591 827 q 642 842 627 827 q 678 901 656 856 l 738 901 z "},"å":{"ha":681,"x_min":46,"x_max":685,"o":"m 685 596 q 583 329 627 481 q 539 151 539 176 q 551 132 539 132 q 633 187 570 132 l 663 154 q 506 24 577 68 q 400 -20 435 -20 q 363 14 363 -20 q 393 138 363 50 q 407 176 396 143 l 404 179 q 262 28 321 77 q 157 -20 204 -20 q 75 30 104 -20 q 46 160 46 79 q 181 484 46 336 q 513 631 317 631 q 635 624 538 631 q 675 621 660 621 l 685 596 m 497 541 q 432 559 460 559 q 284 443 354 559 q 215 205 215 326 q 262 129 215 129 q 355 191 297 129 q 481 484 413 252 l 497 541 m 496 956 q 595 914 553 956 q 637 814 637 872 q 595 714 637 755 q 496 672 553 672 q 396 714 437 672 q 354 814 354 755 q 396 914 354 872 q 496 956 437 956 m 494 739 q 546 760 525 739 q 568 812 568 781 q 546 864 568 843 q 494 886 525 886 q 442 864 464 886 q 420 812 420 843 q 442 760 420 781 q 494 739 464 739 z "},"ç":{"ha":521,"x_min":12,"x_max":607,"o":"m 607 597 q 551 432 575 524 l 496 436 q 414 567 496 567 q 277 453 338 567 q 216 221 216 338 q 232 136 216 175 q 290 97 248 97 q 460 192 348 97 l 496 150 q 289 0 384 39 q 231 -54 262 -23 q 296 -123 296 -69 q 24 -292 296 -247 l 12 -249 q 160 -158 160 -201 q 151 -139 160 -147 q 131 -131 141 -131 q 107 -136 119 -131 l 93 -111 q 193 -20 143 -73 q 46 176 46 -18 q 103 392 46 283 q 256 566 161 500 q 461 631 352 631 q 607 597 534 631 z "},"é":{"ha":550,"x_min":47,"x_max":595,"o":"m 494 119 q 192 -20 321 -20 q 85 31 123 -20 q 47 171 47 82 q 175 486 47 340 q 482 631 303 631 q 591 547 591 631 q 500 380 591 454 q 220 268 410 307 q 218 223 218 242 q 300 94 218 94 q 361 109 328 94 q 460 163 395 124 l 494 119 m 229 329 q 387 410 337 357 q 437 522 437 464 q 401 566 437 566 q 312 510 359 566 q 229 329 265 455 m 595 918 q 537 858 593 913 q 463 780 481 802 q 390 699 445 758 l 330 699 q 416 935 385 831 q 586 935 503 933 l 595 918 z "},"è":{"ha":550,"x_min":47,"x_max":591,"o":"m 494 119 q 192 -20 321 -20 q 85 31 123 -20 q 47 171 47 82 q 175 486 47 340 q 482 631 303 631 q 591 547 591 631 q 500 380 591 454 q 220 268 410 307 q 218 223 218 242 q 300 94 218 94 q 361 109 328 94 q 460 163 395 124 l 494 119 m 229 329 q 387 410 337 357 q 437 522 437 464 q 401 566 437 566 q 312 510 359 566 q 229 329 265 455 m 529 697 l 469 697 q 404 770 422 748 q 326 852 387 791 q 264 916 266 913 l 273 933 q 443 933 356 931 q 519 720 492 789 q 529 697 523 715 z "},"ê":{"ha":550,"x_min":47,"x_max":591,"o":"m 494 119 q 192 -20 321 -20 q 85 31 123 -20 q 47 171 47 82 q 175 486 47 340 q 482 631 303 631 q 591 547 591 631 q 500 380 591 454 q 220 268 410 307 q 218 223 218 242 q 300 94 218 94 q 361 109 328 94 q 460 163 395 124 l 494 119 m 229 329 q 387 410 337 357 q 437 522 437 464 q 401 566 437 566 q 312 510 359 566 q 229 329 265 455 m 585 705 l 522 705 q 443 822 455 805 l 278 705 l 201 705 q 298 811 234 735 q 396 922 362 886 q 460 919 427 919 q 534 922 486 919 q 585 705 552 824 z "},"ë":{"ha":550,"x_min":47,"x_max":631,"o":"m 494 119 q 192 -20 321 -20 q 85 31 123 -20 q 47 171 47 82 q 175 486 47 340 q 482 631 303 631 q 591 547 591 631 q 500 380 591 454 q 220 268 410 307 q 218 223 218 242 q 300 94 218 94 q 361 109 328 94 q 460 163 395 124 l 494 119 m 229 329 q 387 410 337 357 q 437 522 437 464 q 401 566 437 566 q 312 510 359 566 q 229 329 265 455 m 568 905 q 613 887 595 905 q 631 836 631 869 q 606 760 631 793 q 545 726 581 726 q 500 746 519 726 q 481 801 481 765 q 506 870 481 836 q 568 905 532 905 m 340 905 q 385 887 368 905 q 403 836 403 869 q 378 760 403 793 q 317 726 353 726 q 272 746 291 726 q 253 801 253 765 q 279 870 253 836 q 340 905 304 905 z "},"í":{"ha":406,"x_min":58,"x_max":524,"o":"m 82 456 q 353 631 280 631 q 387 593 387 631 q 363 500 387 574 l 252 172 q 248 143 248 153 q 260 129 248 129 q 346 186 279 129 l 378 154 q 217 26 294 72 q 100 -20 141 -20 q 58 16 58 -20 q 119 218 58 47 l 168 354 q 195 447 195 431 q 182 464 195 464 q 113 419 169 464 l 82 456 m 524 918 q 465 858 521 913 q 391 780 409 802 q 318 699 373 758 l 258 699 q 345 935 313 831 q 514 935 431 933 l 524 918 z "},"ì":{"ha":406,"x_min":58,"x_max":443,"o":"m 82 456 q 353 631 280 631 q 387 593 387 631 q 363 500 387 574 l 252 172 q 248 143 248 153 q 260 129 248 129 q 346 186 279 129 l 378 154 q 217 26 294 72 q 100 -20 141 -20 q 58 16 58 -20 q 119 218 58 47 l 168 354 q 195 447 195 431 q 182 464 195 464 q 113 419 169 464 l 82 456 m 443 697 l 383 697 q 318 770 336 748 q 240 852 300 791 q 178 916 180 913 l 187 933 q 357 933 270 931 q 433 720 406 789 q 443 697 437 715 z "},"î":{"ha":406,"x_min":58,"x_max":498,"o":"m 82 456 q 353 631 280 631 q 387 593 387 631 q 363 500 387 574 l 252 172 q 248 143 248 153 q 260 129 248 129 q 346 186 279 129 l 378 154 q 217 26 294 72 q 100 -20 141 -20 q 58 16 58 -20 q 119 218 58 47 l 168 354 q 195 447 195 431 q 182 464 195 464 q 113 419 169 464 l 82 456 m 498 705 l 436 705 q 357 822 369 805 l 192 705 l 115 705 q 212 811 148 735 q 310 922 276 886 q 374 919 341 919 q 448 922 400 919 q 498 705 466 824 z "},"ï":{"ha":406,"x_min":58,"x_max":545,"o":"m 82 456 q 353 631 280 631 q 387 593 387 631 q 363 500 387 574 l 252 172 q 248 143 248 153 q 260 129 248 129 q 346 186 279 129 l 378 154 q 217 26 294 72 q 100 -20 141 -20 q 58 16 58 -20 q 119 218 58 47 l 168 354 q 195 447 195 431 q 182 464 195 464 q 113 419 169 464 l 82 456 m 482 905 q 527 887 509 905 q 545 836 545 869 q 520 760 545 793 q 458 726 495 726 q 414 746 433 726 q 395 801 395 765 q 420 870 395 836 q 482 905 446 905 m 254 905 q 299 887 281 905 q 317 836 317 869 q 292 760 317 793 q 231 726 267 726 q 186 746 205 726 q 167 801 167 765 q 193 870 167 836 q 254 905 218 905 z "},"ñ":{"ha":724,"x_min":40,"x_max":745,"o":"m 707 153 q 431 -20 520 -20 q 386 22 386 -20 q 390 53 386 33 q 420 148 395 73 l 511 427 q 518 458 518 443 q 501 478 518 478 q 431 437 476 478 q 344 339 385 395 q 278 222 302 283 q 208 0 254 161 q 40 -7 86 0 q 172 412 142 311 q 179 443 179 427 q 167 461 179 461 q 128 440 157 461 q 94 414 99 418 l 64 446 q 336 631 254 631 q 370 595 370 631 q 294 363 370 552 l 297 359 q 642 631 505 631 q 704 572 704 631 q 699 531 704 553 l 583 168 q 579 147 579 155 q 593 134 579 134 q 676 186 616 134 l 707 153 m 745 901 q 604 724 680 724 q 510 760 574 724 q 417 797 443 797 q 347 724 378 797 l 288 724 q 351 853 313 806 q 425 901 389 901 q 526 868 467 901 q 614 827 598 827 q 649 842 634 827 q 685 901 663 856 l 745 901 z "},"ó":{"ha":636,"x_min":47,"x_max":639,"o":"m 456 631 q 586 579 540 631 q 632 431 632 528 q 575 209 632 313 q 422 42 517 104 q 228 -20 328 -20 q 97 37 146 -20 q 47 187 47 94 q 105 401 47 297 q 257 568 162 506 q 456 631 353 631 m 285 43 q 409 180 351 43 q 467 450 467 318 q 395 567 467 567 q 269 419 323 567 q 215 170 215 272 q 234 77 215 111 q 285 43 252 43 m 639 918 q 580 858 636 913 q 506 780 524 802 q 433 699 488 758 l 374 699 q 460 935 428 831 q 629 935 547 933 l 639 918 z "},"ò":{"ha":636,"x_min":47,"x_max":632,"o":"m 456 631 q 586 579 540 631 q 632 431 632 528 q 575 209 632 313 q 422 42 517 104 q 228 -20 328 -20 q 97 37 146 -20 q 47 187 47 94 q 105 401 47 297 q 257 568 162 506 q 456 631 353 631 m 285 43 q 409 180 351 43 q 467 450 467 318 q 395 567 467 567 q 269 419 323 567 q 215 170 215 272 q 234 77 215 111 q 285 43 252 43 m 558 697 l 498 697 q 433 770 451 748 q 355 852 416 791 q 293 916 295 913 l 302 933 q 472 933 385 931 q 549 720 522 789 q 558 697 552 715 z "},"ô":{"ha":636,"x_min":47,"x_max":632,"o":"m 456 631 q 586 579 540 631 q 632 431 632 528 q 575 209 632 313 q 422 42 517 104 q 228 -20 328 -20 q 97 37 146 -20 q 47 187 47 94 q 105 401 47 297 q 257 568 162 506 q 456 631 353 631 m 285 43 q 409 180 351 43 q 467 450 467 318 q 395 567 467 567 q 269 419 323 567 q 215 170 215 272 q 234 77 215 111 q 285 43 252 43 m 614 705 l 551 705 q 472 822 484 805 l 307 705 l 231 705 q 327 811 263 735 q 425 922 391 886 q 489 919 456 919 q 564 922 515 919 q 614 705 581 824 z "},"ö":{"ha":636,"x_min":47,"x_max":660,"o":"m 456 631 q 586 579 540 631 q 632 431 632 528 q 575 209 632 313 q 422 42 517 104 q 228 -20 328 -20 q 97 37 146 -20 q 47 187 47 94 q 105 401 47 297 q 257 568 162 506 q 456 631 353 631 m 285 43 q 409 180 351 43 q 467 450 467 318 q 395 567 467 567 q 269 419 323 567 q 215 170 215 272 q 234 77 215 111 q 285 43 252 43 m 597 905 q 642 887 625 905 q 660 836 660 869 q 635 760 660 793 q 574 726 610 726 q 529 746 548 726 q 510 801 510 765 q 535 870 510 836 q 597 905 561 905 m 370 905 q 414 887 397 905 q 432 836 432 869 q 407 760 432 793 q 346 726 382 726 q 301 746 320 726 q 282 801 282 765 q 308 870 282 836 q 370 905 334 905 z "},"õ":{"ha":636,"x_min":47,"x_max":701,"o":"m 456 631 q 586 579 540 631 q 632 431 632 528 q 575 209 632 313 q 422 42 517 104 q 228 -20 328 -20 q 97 37 146 -20 q 47 187 47 94 q 105 401 47 297 q 257 568 162 506 q 456 631 353 631 m 285 43 q 409 180 351 43 q 467 450 467 318 q 395 567 467 567 q 269 419 323 567 q 215 170 215 272 q 234 77 215 111 q 285 43 252 43 m 701 901 q 561 724 637 724 q 467 760 531 724 q 374 797 399 797 q 304 724 334 797 l 244 724 q 307 853 269 806 q 382 901 345 901 q 482 868 424 901 q 571 827 555 827 q 605 842 591 827 q 642 901 620 856 l 701 901 z "},"ú":{"ha":724,"x_min":61,"x_max":729,"o":"m 729 623 q 620 289 658 421 q 582 144 582 156 q 595 127 582 127 q 681 184 609 127 l 710 153 q 560 29 637 77 q 440 -20 484 -20 q 396 12 396 -20 q 427 132 396 44 q 468 243 457 219 l 465 245 q 122 -20 265 -20 q 61 36 61 -20 q 74 106 61 65 l 130 280 q 176 419 174 412 q 183 450 183 440 q 172 463 183 463 q 100 412 160 463 l 71 446 q 343 631 263 631 q 382 590 382 631 q 315 366 382 538 q 271 241 295 313 q 248 153 248 169 q 265 131 248 131 q 333 174 285 131 q 425 277 380 217 q 492 398 469 338 q 555 603 515 458 q 729 623 648 606 m 682 918 q 623 858 679 913 q 549 780 567 802 q 476 699 531 758 l 416 699 q 503 935 471 831 q 672 935 589 933 l 682 918 z "},"ù":{"ha":724,"x_min":61,"x_max":729,"o":"m 729 623 q 620 289 658 421 q 582 144 582 156 q 595 127 582 127 q 681 184 609 127 l 710 153 q 560 29 637 77 q 440 -20 484 -20 q 396 12 396 -20 q 427 132 396 44 q 468 243 457 219 l 465 245 q 122 -20 265 -20 q 61 36 61 -20 q 74 106 61 65 l 130 280 q 176 419 174 412 q 183 450 183 440 q 172 463 183 463 q 100 412 160 463 l 71 446 q 343 631 263 631 q 382 590 382 631 q 315 366 382 538 q 271 241 295 313 q 248 153 248 169 q 265 131 248 131 q 333 174 285 131 q 425 277 380 217 q 492 398 469 338 q 555 603 515 458 q 729 623 648 606 m 602 697 l 542 697 q 477 770 494 748 q 399 852 459 791 q 336 916 338 913 l 346 933 q 515 933 429 931 q 592 720 565 789 q 602 697 595 715 z "},"û":{"ha":724,"x_min":61,"x_max":729,"o":"m 729 623 q 620 289 658 421 q 582 144 582 156 q 595 127 582 127 q 681 184 609 127 l 710 153 q 560 29 637 77 q 440 -20 484 -20 q 396 12 396 -20 q 427 132 396 44 q 468 243 457 219 l 465 245 q 122 -20 265 -20 q 61 36 61 -20 q 74 106 61 65 l 130 280 q 176 419 174 412 q 183 450 183 440 q 172 463 183 463 q 100 412 160 463 l 71 446 q 343 631 263 631 q 382 590 382 631 q 315 366 382 538 q 271 241 295 313 q 248 153 248 169 q 265 131 248 131 q 333 174 285 131 q 425 277 380 217 q 492 398 469 338 q 555 603 515 458 q 729 623 648 606 m 656 705 l 594 705 q 515 822 527 805 l 350 705 l 273 705 q 370 811 306 735 q 468 922 434 886 q 532 919 499 919 q 606 922 558 919 q 656 705 624 824 z "},"ü":{"ha":724,"x_min":61,"x_max":729,"o":"m 729 623 q 620 289 658 421 q 582 144 582 156 q 595 127 582 127 q 681 184 609 127 l 710 153 q 560 29 637 77 q 440 -20 484 -20 q 396 12 396 -20 q 427 132 396 44 q 468 243 457 219 l 465 245 q 122 -20 265 -20 q 61 36 61 -20 q 74 106 61 65 l 130 280 q 176 419 174 412 q 183 450 183 440 q 172 463 183 463 q 100 412 160 463 l 71 446 q 343 631 263 631 q 382 590 382 631 q 315 366 382 538 q 271 241 295 313 q 248 153 248 169 q 265 131 248 131 q 333 174 285 131 q 425 277 380 217 q 492 398 469 338 q 555 603 515 458 q 729 623 648 606 m 640 905 q 685 887 667 905 q 703 836 703 869 q 678 760 703 793 q 616 726 653 726 q 572 746 591 726 q 553 801 553 765 q 578 870 553 836 q 640 905 604 905 m 412 905 q 457 887 439 905 q 475 836 475 869 q 450 760 475 793 q 389 726 425 726 q 344 746 363 726 q 325 801 325 765 q 351 870 325 836 q 412 905 376 905 z "},"†":{"ha":708,"x_min":110,"x_max":781,"o":"m 781 747 l 726 554 q 510 621 596 601 q 392 57 455 388 q 329 -292 329 -275 l 110 -292 q 449 621 283 140 q 189 554 349 604 l 248 747 q 458 675 362 703 q 473 989 471 788 l 688 989 q 524 675 598 836 q 781 747 596 689 z "},"°":{"ha":550,"x_min":178,"x_max":647,"o":"m 412 956 q 578 887 509 956 q 647 721 647 818 q 578 555 647 625 q 412 486 509 486 q 247 555 316 486 q 178 721 178 625 q 247 887 178 818 q 412 956 316 956 m 412 576 q 515 619 473 576 q 558 721 558 662 q 515 824 558 781 q 412 867 473 867 q 310 824 353 867 q 267 721 267 781 q 309 618 267 661 q 412 576 352 576 z "},"¢":{"ha":521,"x_min":82,"x_max":644,"o":"m 644 757 q 590 595 610 677 l 536 595 q 472 724 530 709 l 338 257 q 496 353 402 268 l 536 309 q 307 151 410 186 l 254 -25 l 189 -25 l 236 139 q 113 199 144 139 q 82 330 82 258 q 172 604 82 471 q 424 783 262 736 l 472 953 l 536 953 l 492 790 q 644 757 574 790 m 406 717 q 279 564 317 667 q 240 376 240 461 q 275 272 240 307 l 406 717 z "},"£":{"ha":737,"x_min":22,"x_max":828,"o":"m 828 896 q 762 747 788 829 l 708 753 q 710 781 710 768 q 629 886 710 886 q 537 833 572 886 q 485 610 501 780 l 479 547 q 636 551 606 547 l 643 539 q 603 468 618 502 q 475 478 562 478 q 419 257 459 318 q 243 118 379 196 l 245 115 q 389 163 349 163 q 460 145 414 163 l 503 127 q 551 117 530 117 q 668 192 595 117 l 710 151 q 478 -24 572 -24 q 354 11 440 -24 q 233 41 287 41 q 53 -24 165 41 l 22 36 q 227 201 167 121 q 306 476 288 281 q 183 472 235 476 l 175 488 q 218 555 196 512 q 310 546 263 549 q 332 730 313 665 q 400 848 352 795 q 511 928 449 901 q 642 954 574 954 q 828 896 742 954 z "},"§":{"ha":636,"x_min":0,"x_max":734,"o":"m 734 926 q 660 775 692 863 l 602 783 q 606 833 606 808 q 583 901 606 873 q 519 929 559 929 q 448 899 475 929 q 421 829 421 869 q 437 750 421 794 q 514 618 454 707 q 596 480 567 539 q 625 361 625 422 q 407 100 625 197 q 465 -66 465 4 q 382 -229 465 -166 q 197 -292 298 -292 q 0 -210 90 -292 q 96 -68 50 -146 l 136 -87 q 134 -121 134 -103 q 157 -192 134 -165 q 224 -218 181 -218 q 292 -192 265 -218 q 318 -126 318 -165 q 216 103 318 -50 q 140 236 170 176 q 111 353 111 297 q 339 591 111 526 q 271 775 271 712 q 353 927 271 865 q 546 989 435 989 q 734 926 650 989 m 378 151 q 485 294 485 201 q 368 542 485 374 q 254 411 254 505 q 378 151 254 333 z "},"•":{"ha":492,"x_min":132,"x_max":518,"o":"m 325 652 q 461 595 405 652 q 518 458 518 538 q 461 322 518 378 q 325 265 405 265 q 189 322 245 265 q 132 458 132 378 q 189 595 132 538 q 325 652 245 652 z "},"¶":{"ha":753,"x_min":102,"x_max":852,"o":"m 852 890 l 823 890 q 755 874 777 890 q 730 830 734 857 q 725 751 725 804 l 725 -300 l 659 -300 l 659 868 l 534 868 l 534 -300 l 467 -300 l 467 292 q 185 388 268 298 q 102 612 102 478 q 160 798 102 728 q 283 894 218 868 q 555 920 348 920 l 852 920 l 852 890 z "},"ß":{"ha":681,"x_min":-253,"x_max":730,"o":"m 214 623 q 306 851 246 781 q 438 955 366 920 q 587 989 510 989 q 694 956 657 989 q 730 879 730 923 q 629 713 730 787 q 541 643 562 665 q 519 600 519 621 q 587 425 519 571 q 647 224 647 294 q 569 48 647 117 q 399 -20 491 -20 q 265 20 339 -20 q 329 153 302 83 l 359 147 q 441 46 374 46 q 492 66 471 46 q 513 118 513 87 q 457 302 513 175 q 390 494 390 450 q 478 660 390 551 q 585 864 585 787 q 570 911 585 895 q 530 928 555 928 q 470 895 494 928 q 417 771 446 861 q 334 469 389 682 q 207 4 231 77 q 142 -134 183 -68 q 19 -246 101 -200 q -129 -292 -63 -292 q -253 -252 -184 -292 q -186 -134 -209 -192 l -161 -134 q -68 -210 -121 -210 q 4 -156 -24 -210 q 82 100 32 -102 l 192 543 q 102 539 141 543 l 113 590 q 214 623 160 600 z "},"®":{"ha":1042,"x_min":122,"x_max":1083,"o":"m 603 940 q 942 799 801 940 q 1083 460 1083 659 q 1019 219 1083 331 q 843 43 954 108 q 603 -21 731 -21 q 263 120 405 -21 q 122 460 122 262 q 263 799 122 659 q 603 940 405 940 m 603 39 q 900 163 776 39 q 1023 460 1023 287 q 900 758 1023 635 q 603 880 777 880 q 306 757 430 880 q 182 460 182 634 q 306 163 182 287 q 603 39 430 39 m 873 191 l 711 191 l 572 440 l 541 440 l 541 306 q 555 233 541 250 q 623 214 569 216 l 623 191 l 335 191 l 335 214 q 378 219 365 214 q 398 244 391 224 q 406 306 406 264 l 406 627 q 392 700 406 686 q 346 715 379 713 l 346 739 l 590 739 q 734 724 690 739 q 805 672 777 708 q 832 590 832 635 q 711 450 832 484 l 800 287 q 838 232 821 247 q 873 214 855 217 l 873 191 m 541 475 q 578 472 553 472 q 654 504 621 472 q 686 593 686 536 q 566 710 686 710 l 541 710 l 541 475 z "},"©":{"ha":1042,"x_min":122,"x_max":1083,"o":"m 603 940 q 942 799 800 940 q 1083 460 1083 659 q 1019 219 1083 331 q 843 43 954 108 q 603 -21 731 -21 q 263 120 405 -21 q 122 460 122 262 q 263 799 122 659 q 603 940 405 940 m 603 39 q 900 163 776 39 q 1023 460 1023 287 q 900 758 1023 635 q 603 880 777 880 q 306 757 430 880 q 182 460 182 634 q 306 163 182 287 q 603 39 430 39 m 829 571 l 804 571 q 742 682 789 646 q 637 717 695 717 q 506 650 551 717 q 461 471 461 583 q 476 336 461 388 q 536 251 491 285 q 633 216 581 216 q 811 311 735 216 l 811 262 q 595 176 728 176 q 392 251 474 176 q 310 453 310 326 q 397 669 310 587 q 608 751 484 751 q 742 724 663 751 q 772 715 762 715 q 804 750 800 715 l 829 750 l 829 571 z "},"™":{"ha":1389,"x_min":83,"x_max":1482,"o":"m 1482 441 l 1169 441 l 1169 465 q 1232 481 1219 467 q 1246 553 1246 496 l 1246 896 l 1243 896 l 1029 441 l 1013 441 l 800 896 l 798 896 l 798 554 q 809 484 798 500 q 875 465 821 467 l 875 441 l 685 441 l 685 465 q 747 483 735 467 q 760 557 760 498 l 760 873 q 748 946 760 929 q 685 964 736 964 l 685 989 l 935 989 l 1092 653 l 1246 989 l 1482 989 l 1482 964 q 1424 945 1435 964 q 1413 872 1413 926 l 1413 553 q 1423 486 1413 504 q 1482 465 1434 468 l 1482 441 m 610 836 l 586 836 q 557 920 586 886 q 454 954 528 954 l 429 954 l 429 555 q 440 484 429 503 q 498 465 451 465 l 498 441 l 192 441 l 192 465 q 248 477 234 467 q 261 558 261 488 l 261 954 l 237 954 q 106 836 111 954 l 83 836 l 83 989 l 610 989 l 610 836 z "},"´":{"ha":463,"x_min":286,"x_max":551,"o":"m 551 935 q 493 874 549 930 q 419 797 437 819 q 346 715 401 774 l 286 715 q 372 951 340 848 q 542 951 459 950 l 551 935 z "},"¨":{"ha":463,"x_min":195,"x_max":572,"o":"m 510 922 q 555 904 537 922 q 572 852 572 886 q 548 777 572 810 q 486 743 523 743 q 441 763 460 743 q 422 818 422 782 q 448 887 422 852 q 510 922 473 922 m 282 922 q 327 904 309 922 q 345 852 345 886 q 320 777 345 810 q 258 743 295 743 q 214 763 233 743 q 195 818 195 782 q 220 887 195 852 q 282 922 246 922 z "},"≠":{"ha":926,"x_min":171,"x_max":920,"o":"m 231 43 l 340 233 l 171 233 l 171 358 l 411 358 l 525 555 l 171 555 l 171 681 l 597 681 l 742 930 l 850 868 l 742 681 l 920 681 l 920 555 l 669 555 l 555 358 l 920 358 l 920 233 l 485 233 l 339 -20 l 231 43 z "},"Æ":{"ha":1447,"x_min":-58,"x_max":1533,"o":"m 1533 939 q 1479 734 1507 863 q 1470 692 1472 700 l 1415 692 q 1411 815 1415 789 q 1389 850 1407 842 q 1317 859 1371 859 l 1132 859 q 1081 692 1107 785 l 1032 524 q 1099 522 1078 522 q 1192 541 1166 522 q 1265 650 1218 560 l 1322 650 q 1223 300 1282 532 l 1165 300 q 1174 403 1174 347 q 1158 444 1174 435 q 1013 453 1141 453 l 956 253 q 908 74 926 145 l 1118 74 q 1214 82 1185 74 q 1271 127 1242 91 q 1357 261 1300 163 l 1421 261 q 1328 -7 1362 102 q 925 0 1137 0 q 550 -7 698 0 l 564 40 q 685 68 669 57 q 716 123 700 79 q 779 317 733 167 q 428 317 583 319 l 252 133 q 223 98 233 113 q 214 74 214 83 q 229 56 214 62 q 293 40 243 50 l 281 -7 q 115 0 175 0 l -58 -7 l -43 40 q 63 85 20 54 q 319 330 99 112 l 649 666 q 807 829 804 825 q 814 846 814 839 q 802 862 814 857 q 732 880 790 867 q 714 885 718 884 q 690 890 697 890 l 705 939 q 1039 930 822 930 q 1533 939 1348 930 m 933 850 l 930 852 l 497 389 l 800 389 l 933 850 z "},"Ø":{"ha":1013,"x_min":40,"x_max":1125,"o":"m 1125 901 l 1019 806 q 1055 643 1055 730 q 970 317 1055 476 q 741 65 885 159 q 428 -28 596 -28 q 196 58 271 -28 l 92 -37 l 40 18 l 153 121 q 114 294 114 194 q 197 607 114 445 q 421 865 279 768 q 734 961 563 961 q 977 868 896 961 l 1075 958 l 1125 901 m 839 743 q 688 890 812 890 q 512 797 595 890 q 376 551 429 704 q 322 273 323 398 l 839 743 m 844 647 l 332 182 q 493 50 368 50 q 603 87 553 50 q 710 210 653 123 q 802 408 767 296 q 844 647 838 520 z "},"∞":{"ha":990,"x_min":119,"x_max":1007,"o":"m 553 536 q 657 679 601 635 q 793 722 713 722 q 946 649 886 722 q 1007 458 1007 576 q 947 254 1007 334 q 785 174 886 174 q 581 358 656 174 q 484 220 536 265 q 357 175 432 175 q 186 250 253 175 q 119 439 119 326 q 183 643 119 564 q 353 722 247 722 q 553 536 475 722 m 608 410 q 784 296 677 296 q 914 341 866 296 q 962 461 962 387 q 916 571 962 528 q 803 614 871 614 q 694 557 739 614 q 608 410 649 501 m 521 484 q 453 575 492 545 q 346 604 414 604 q 217 557 264 604 q 170 439 170 510 q 212 327 170 373 q 321 281 255 281 q 521 484 420 281 z "},"±":{"ha":926,"x_min":170,"x_max":920,"o":"m 920 519 l 607 519 l 607 208 l 482 208 l 482 519 l 170 519 l 170 644 l 482 644 l 482 957 l 607 957 l 607 644 l 920 644 l 920 519 m 920 -28 l 170 -28 l 170 97 l 920 97 l 920 -28 z "},"≤":{"ha":926,"x_min":170,"x_max":920,"o":"m 920 164 l 172 476 l 172 590 l 920 903 l 920 768 l 343 533 l 920 300 l 920 164 m 170 97 l 920 97 l 920 -28 l 170 -28 l 170 97 z "},"≥":{"ha":926,"x_min":170,"x_max":920,"o":"m 918 476 l 171 164 l 171 298 l 749 533 l 171 766 l 171 903 l 918 590 l 918 476 m 170 97 l 920 97 l 920 -28 l 170 -28 l 170 97 z "},"¥":{"ha":897,"x_min":92,"x_max":1107,"o":"m 1107 939 l 1095 890 q 998 860 1026 878 q 891 743 970 842 l 711 515 l 974 515 l 953 446 l 657 446 l 641 425 q 630 408 632 414 l 603 307 l 921 307 l 903 237 l 585 237 l 548 101 q 546 86 546 91 q 555 67 546 73 q 626 51 564 62 q 689 40 687 40 l 673 -7 q 428 0 562 0 q 168 -7 290 0 l 182 40 q 246 51 184 40 q 320 70 307 62 q 344 110 332 77 l 387 237 l 92 237 l 114 307 l 408 307 q 441 432 441 429 l 441 446 l 151 446 l 172 515 l 424 515 l 347 786 q 340 810 345 793 q 320 855 331 846 q 255 877 310 863 q 196 890 200 890 l 211 939 q 452 930 373 930 q 689 939 545 930 l 676 890 q 566 858 596 872 q 536 825 536 844 q 608 515 536 817 l 764 729 q 831 825 821 807 q 842 854 842 844 q 820 874 842 867 q 758 890 798 882 l 770 939 q 936 930 886 930 q 1107 939 974 930 z "},"µ":{"ha":796,"x_min":-62,"x_max":757,"o":"m 757 610 l 633 189 q 612 96 612 117 q 623 68 612 80 q 646 57 633 57 q 724 153 680 57 l 749 139 q 568 -20 692 -20 q 483 14 512 -20 q 454 94 454 47 q 460 150 454 118 l 457 153 q 338 18 391 56 q 227 -20 286 -20 q 122 40 154 -20 q 90 -156 96 -20 q 3 -292 85 -292 q -44 -271 -26 -292 q -62 -220 -62 -250 q -8 -87 -62 -173 q 56 30 44 -5 q 75 85 68 64 l 227 610 l 400 610 l 290 232 q 285 214 290 231 q 268 129 268 164 q 284 92 268 103 q 317 81 301 81 q 380 109 346 81 q 448 198 414 137 q 512 364 481 260 l 583 610 l 757 610 z "},"∂":{"ha":660,"x_min":129,"x_max":698,"o":"m 544 550 q 547 591 547 572 q 502 840 547 743 q 402 937 458 937 q 340 919 370 937 q 277 836 311 901 q 242 785 254 795 q 218 775 230 775 q 158 832 158 775 q 230 930 158 882 q 389 978 302 978 q 618 847 538 978 q 698 465 698 717 q 609 114 698 245 q 370 -17 520 -17 q 194 52 260 -17 q 129 233 129 121 q 215 470 129 360 q 429 581 300 581 q 544 550 503 581 m 522 400 q 430 551 522 551 q 321 439 361 551 q 280 172 280 328 q 369 12 280 12 q 479 130 437 12 q 522 400 522 248 z "},"∑":{"ha":990,"x_min":90,"x_max":935,"o":"m 895 930 l 909 657 l 869 657 q 833 752 869 697 q 734 843 797 808 q 593 878 671 878 l 296 878 l 623 418 l 249 -94 l 684 -94 q 827 -56 777 -94 q 896 69 878 -17 l 935 69 l 899 -245 l 90 -245 l 90 -201 l 478 332 l 92 885 l 92 930 l 895 930 z "},"∏":{"ha":1095,"x_min":210,"x_max":1145,"o":"m 1145 893 l 1137 893 q 1053 864 1076 893 q 1029 758 1029 836 l 1029 -72 q 1054 -180 1029 -152 q 1145 -208 1078 -208 l 1145 -245 l 753 -245 l 753 -208 q 844 -179 821 -208 q 867 -72 867 -151 l 867 758 q 845 856 867 833 q 753 878 823 878 l 602 878 q 511 851 536 878 q 486 758 486 825 l 486 -72 q 510 -179 486 -151 q 602 -208 534 -208 l 602 -245 l 210 -245 l 210 -208 q 302 -180 279 -208 q 326 -72 326 -152 l 326 758 q 300 867 326 842 q 210 893 274 891 l 210 930 l 1145 930 l 1145 893 z "},"":{"ha":762,"x_min":84,"x_max":737,"o":"m 109 366 q 157 549 113 506 q 329 593 200 593 q 452 587 364 593 q 615 582 540 582 q 677 589 659 582 q 701 628 695 597 l 737 628 q 704 474 737 517 q 573 432 671 432 l 573 150 q 616 72 573 72 q 694 163 669 72 l 733 163 q 689 23 722 68 q 598 -21 657 -21 q 534 16 555 -21 q 512 139 512 52 l 512 433 l 344 439 q 176 -18 334 -18 q 84 132 84 -18 q 88 180 84 150 l 133 180 q 177 100 133 100 q 294 439 276 100 q 185 427 211 439 q 146 366 159 414 l 109 366 z "},"∫":{"ha":380,"x_min":71,"x_max":450,"o":"m 239 -151 q 233 -71 239 -136 q 206 378 206 136 q 212 630 206 450 q 223 864 218 811 q 242 959 229 918 q 274 1025 255 1000 q 318 1064 293 1051 q 366 1078 343 1078 q 424 1055 398 1078 q 450 1004 450 1032 q 434 955 450 975 q 389 935 417 935 q 336 958 367 935 q 311 972 323 972 q 283 929 283 972 q 290 831 283 916 q 315 415 315 551 q 309 179 315 414 q 293 -114 302 -56 q 265 -215 283 -173 q 219 -278 247 -258 q 152 -298 191 -298 q 94 -276 116 -298 q 71 -216 71 -254 q 89 -169 71 -187 q 132 -150 106 -150 q 180 -172 159 -150 q 213 -193 199 -193 q 239 -151 239 -193 z "},"ª":{"ha":478,"x_min":215,"x_max":640,"o":"m 640 936 q 578 786 610 885 q 546 679 546 687 q 553 669 546 669 q 572 681 558 669 l 600 704 l 628 676 q 523 596 571 623 q 450 570 475 570 q 416 596 416 570 q 436 659 416 612 l 433 661 q 354 589 385 609 q 294 570 323 570 q 236 599 256 570 q 215 679 215 629 q 310 878 215 793 q 514 962 404 962 q 600 956 530 962 q 632 953 619 953 l 640 936 m 503 900 q 471 908 487 908 q 382 842 425 908 q 340 707 340 777 q 363 665 340 665 q 416 701 378 665 q 494 872 454 736 l 503 900 z "},"º":{"ha":449,"x_min":218,"x_max":611,"o":"m 490 961 q 581 929 550 961 q 611 842 611 897 q 531 653 611 737 q 343 570 451 570 q 252 604 286 570 q 218 696 218 638 q 300 879 218 798 q 490 961 382 961 m 380 615 q 452 696 415 615 q 489 847 489 778 q 479 896 489 876 q 452 916 470 916 q 377 833 413 916 q 342 685 342 751 q 352 635 342 655 q 380 615 363 615 z "},"Ω":{"ha":1067,"x_min":149,"x_max":1029,"o":"m 491 229 q 245 342 341 245 q 149 567 149 438 q 274 839 149 728 q 591 950 398 950 q 905 839 781 950 q 1029 567 1029 728 q 933 342 1029 438 q 688 229 838 245 l 688 147 l 877 147 q 961 159 937 147 q 984 228 984 172 l 1016 228 l 1016 0 l 642 0 l 642 277 q 848 578 848 355 q 773 810 848 718 q 591 903 699 903 q 406 810 481 903 q 331 578 331 718 q 536 277 331 355 l 536 0 l 163 0 l 163 228 l 195 228 q 214 162 195 178 q 302 147 234 147 l 491 147 l 491 229 z "},"æ":{"ha":897,"x_min":49,"x_max":943,"o":"m 621 536 q 835 631 719 631 q 916 608 888 631 q 943 547 943 585 q 851 379 943 457 q 564 269 760 300 q 561 203 561 205 q 582 123 561 155 q 643 92 602 92 q 812 164 703 92 l 844 119 q 549 -20 673 -20 q 404 151 408 -20 q 265 22 323 63 q 160 -20 207 -20 q 79 27 109 -20 q 49 154 49 74 q 187 488 49 346 q 522 631 325 631 q 574 628 534 631 q 646 619 595 623 l 650 599 q 618 539 633 575 l 621 536 m 575 325 q 738 410 686 359 q 790 517 790 461 q 754 561 790 561 q 664 504 715 561 q 575 325 612 446 m 510 536 q 436 558 470 558 q 288 444 357 558 q 218 205 218 329 q 265 125 218 125 q 339 166 294 125 q 405 244 385 207 q 439 325 425 281 l 510 536 z "},"ø":{"ha":636,"x_min":-14,"x_max":696,"o":"m 696 595 l 618 522 q 632 432 632 484 q 575 209 632 314 q 422 42 517 104 q 228 -20 327 -20 q 103 31 149 -20 l 33 -36 l -14 12 l 64 87 q 46 183 46 136 q 104 401 46 297 q 257 568 161 506 q 456 631 353 631 q 582 583 533 631 l 648 647 l 696 595 m 465 472 q 395 567 461 567 q 295 478 342 567 q 221 240 248 389 l 224 237 l 465 472 m 461 370 l 458 372 l 216 138 q 285 43 229 43 q 389 137 338 43 q 461 370 439 232 z "},"¿":{"ha":579,"x_min":-17,"x_max":519,"o":"m 425 631 q 493 601 467 631 q 519 526 519 572 q 486 430 519 474 q 401 386 452 386 q 332 414 361 386 q 302 493 302 443 q 338 589 302 548 q 425 631 374 631 m 432 -119 q 383 -298 387 -271 q 189 -350 286 -350 q 36 -304 90 -350 q -17 -183 -17 -258 q 25 -60 -17 -115 q 127 49 67 -5 q 260 182 221 130 q 329 315 300 234 l 396 315 q 252 17 359 153 q 165 -104 183 -69 q 147 -170 147 -138 q 171 -231 147 -207 q 233 -254 195 -254 q 307 -228 275 -254 q 376 -119 338 -201 l 432 -119 z "},"¡":{"ha":390,"x_min":-72,"x_max":386,"o":"m 292 631 q 359 603 332 631 q 386 528 386 575 q 352 430 386 473 q 268 386 319 386 q 199 414 228 386 q 170 493 170 443 q 205 590 170 549 q 292 631 241 631 m 256 318 q 158 -289 174 -132 q -37 -349 53 -307 l -72 -323 q 69 14 -20 -211 q 174 273 159 239 l 178 286 q 192 318 189 313 l 256 318 z "},"¬":{"ha":926,"x_min":171,"x_max":920,"o":"m 920 240 l 794 240 l 794 564 l 171 564 l 171 689 l 920 689 l 920 240 z "},"√":{"ha":762,"x_min":39,"x_max":945,"o":"m 407 -221 l 178 329 l 58 264 l 39 323 l 279 463 l 465 1 l 873 1097 l 945 1097 l 453 -221 l 407 -221 z "},"ƒ":{"ha":681,"x_min":3,"x_max":708,"o":"m 708 949 q 659 806 668 861 l 602 812 q 586 908 602 885 q 542 930 570 930 q 476 865 494 930 q 444 610 458 800 l 503 610 q 602 618 562 610 l 608 602 q 572 530 587 568 q 436 538 532 538 q 385 55 407 222 q 292 -202 363 -113 q 126 -292 220 -292 q 3 -250 58 -292 q 64 -139 39 -192 l 86 -139 q 160 -218 113 -218 q 198 -200 184 -218 q 218 -111 213 -182 q 232 102 228 21 q 250 347 236 183 l 267 538 q 170 533 213 538 l 182 586 q 273 618 239 602 q 285 708 273 629 q 312 827 296 787 q 364 905 328 867 q 452 966 400 944 q 559 989 505 989 q 708 949 644 989 z "},"≈":{"ha":926,"x_min":170,"x_max":921,"o":"m 170 640 q 364 724 264 724 q 433 714 394 724 q 555 669 472 705 q 722 619 669 619 q 921 721 834 619 l 921 572 q 725 494 823 494 q 655 504 694 494 q 537 547 616 513 q 422 590 460 581 q 355 599 385 599 q 170 497 264 599 l 170 640 m 170 319 q 366 404 264 404 q 433 395 395 404 q 554 349 471 385 q 721 298 669 298 q 921 400 830 298 l 921 253 q 720 174 826 174 q 652 182 690 174 q 538 226 615 191 q 426 269 463 260 q 361 278 390 278 q 170 176 266 278 l 170 319 z "},"∆":{"ha":850,"x_min":20,"x_max":868,"o":"m 20 0 l 431 960 l 476 960 l 868 0 l 20 0 m 122 83 l 659 83 l 400 753 l 122 83 z "},"«":{"ha":564,"x_min":71,"x_max":616,"o":"m 616 541 l 439 300 l 473 62 l 419 62 l 294 313 l 546 541 l 616 541 m 387 541 l 218 313 l 249 62 l 192 62 l 71 334 l 318 541 l 387 541 z "},"»":{"ha":564,"x_min":4,"x_max":550,"o":"m 550 269 l 302 62 l 233 62 l 403 290 l 372 541 l 429 541 l 550 269 m 326 290 l 75 62 l 4 62 l 182 302 l 147 541 l 201 541 l 326 290 z "},"…":{"ha":1389,"x_min":110,"x_max":1278,"o":"m 1157 221 q 1242 185 1207 221 q 1278 98 1278 149 q 1242 13 1278 49 q 1157 -22 1207 -22 q 1070 13 1106 -22 q 1035 98 1035 49 q 1070 185 1035 149 q 1157 221 1105 221 m 694 221 q 780 185 745 221 q 815 98 815 149 q 780 13 815 49 q 694 -22 744 -22 q 608 13 644 -22 q 572 98 572 49 q 608 185 572 149 q 694 221 644 221 m 232 221 q 317 185 282 221 q 353 98 353 149 q 317 13 353 49 q 232 -22 282 -22 q 145 13 181 -22 q 110 98 110 49 q 145 185 110 149 q 232 221 180 221 z "}," ":{"ha":340,"x_min":0,"x_max":0,"o":""},"À":{"ha":954,"x_min":-43,"x_max":922,"o":"m 922 40 l 909 -7 q 682 0 791 0 q 422 -7 562 0 l 436 40 q 445 43 437 41 q 565 89 547 69 q 597 239 583 108 q 603 282 600 272 l 361 282 q 254 136 286 183 q 221 75 221 90 q 232 57 221 62 q 290 45 242 53 q 300 42 294 44 q 309 40 307 40 l 294 -7 q 131 0 206 0 q -43 -7 60 0 l -29 40 l 18 52 q 74 76 55 62 q 194 211 93 90 q 515 616 294 332 q 778 961 736 899 l 839 961 q 802 476 819 772 q 785 117 785 180 q 791 86 785 96 q 825 67 798 77 q 922 40 852 58 m 642 657 l 639 660 q 414 351 433 375 l 610 351 l 628 533 q 642 657 637 631 m 883 1011 l 823 1011 q 758 1084 776 1062 q 680 1166 741 1105 q 618 1230 620 1227 l 627 1247 q 797 1247 710 1245 q 873 1034 846 1103 q 883 1011 877 1029 z "},"Ã":{"ha":954,"x_min":-43,"x_max":1027,"o":"m 922 40 l 909 -7 q 682 0 791 0 q 422 -7 562 0 l 436 40 q 445 43 437 41 q 565 89 547 69 q 597 239 583 108 q 603 282 600 272 l 361 282 q 254 136 286 183 q 221 75 221 90 q 232 57 221 62 q 290 45 242 53 q 300 42 294 44 q 309 40 307 40 l 294 -7 q 131 0 206 0 q -43 -7 60 0 l -29 40 l 18 52 q 74 76 55 62 q 194 211 93 90 q 515 616 294 332 q 778 961 736 899 l 839 961 q 802 476 819 772 q 785 117 785 180 q 791 86 785 96 q 825 67 798 77 q 922 40 852 58 m 642 657 l 639 660 q 414 351 433 375 l 610 351 l 628 533 q 642 657 637 631 m 1027 1215 q 886 1038 962 1038 q 792 1074 857 1038 q 699 1111 725 1111 q 629 1038 660 1111 l 570 1038 q 633 1167 595 1120 q 707 1215 671 1215 q 808 1182 749 1215 q 897 1141 880 1141 q 931 1156 916 1141 q 967 1215 945 1170 l 1027 1215 z "},"Õ":{"ha":1013,"x_min":114,"x_max":1055,"o":"m 734 961 q 974 871 893 961 q 1055 643 1055 781 q 970 317 1055 476 q 741 65 885 159 q 428 -28 596 -28 q 190 65 266 -28 q 114 302 114 158 q 196 607 114 446 q 420 864 279 768 q 734 961 562 961 m 493 50 q 606 89 555 50 q 717 221 657 127 q 810 434 777 315 q 844 667 844 553 q 804 831 844 771 q 688 890 764 890 q 511 795 594 890 q 375 547 428 701 q 322 283 322 394 q 493 50 322 50 m 972 1215 q 832 1038 908 1038 q 738 1074 802 1038 q 645 1111 671 1111 q 575 1038 606 1111 l 515 1038 q 578 1167 541 1120 q 653 1215 616 1215 q 753 1182 695 1215 q 842 1141 826 1141 q 877 1156 862 1141 q 913 1215 891 1170 l 972 1215 z "},"Œ":{"ha":1432,"x_min":118,"x_max":1514,"o":"m 1514 939 q 1453 692 1471 807 l 1396 692 q 1383 841 1396 822 q 1282 860 1371 860 l 1090 860 l 991 524 q 1076 522 1051 522 q 1171 539 1147 522 q 1234 627 1194 556 q 1247 650 1238 635 l 1305 650 q 1207 300 1255 513 l 1150 300 q 1156 397 1156 371 q 1135 448 1156 443 q 1061 453 1114 453 l 971 453 q 868 72 901 208 l 1096 72 q 1190 77 1162 72 q 1254 126 1218 82 q 1340 260 1289 171 l 1401 260 q 1311 -7 1344 109 q 859 0 1080 0 l 476 -7 q 196 90 275 -7 q 118 322 118 187 q 195 613 118 464 q 417 850 272 763 q 758 937 562 937 l 1028 930 q 1283 933 1112 930 q 1514 939 1455 937 m 568 61 q 634 72 610 61 q 675 115 658 83 q 718 233 692 146 l 840 661 q 879 821 879 800 q 785 869 879 869 q 546 791 650 869 q 383 579 441 713 q 325 322 325 446 q 568 61 325 61 z "},"œ":{"ha":911,"x_min":39,"x_max":956,"o":"m 590 507 q 842 631 705 631 q 924 609 893 631 q 956 547 956 588 q 870 388 956 467 q 583 267 785 309 l 581 207 q 663 96 581 96 q 822 164 724 96 l 856 118 q 568 -20 670 -20 q 444 94 458 -20 q 228 -20 353 -20 q 87 37 135 -20 q 39 192 39 94 q 95 402 39 298 q 245 568 151 506 q 443 631 338 631 q 590 507 574 631 m 275 46 q 401 188 345 46 q 457 456 457 330 q 438 538 457 508 q 383 568 419 568 q 262 427 318 568 q 205 174 205 286 q 275 46 205 46 m 591 328 q 754 417 708 362 q 800 522 800 472 q 790 552 800 541 q 764 564 780 564 q 675 509 722 564 q 591 328 627 455 z "},"–":{"ha":694,"x_min":49,"x_max":760,"o":"m 760 302 l 49 302 l 49 392 l 760 392 l 760 302 z "},"—":{"ha":1389,"x_min":40,"x_max":1446,"o":"m 1446 302 l 40 302 l 40 392 l 1446 392 l 1446 302 z "},"“":{"ha":737,"x_min":203,"x_max":863,"o":"m 863 904 q 705 682 705 772 q 715 644 705 656 q 740 627 725 631 q 771 627 743 627 l 793 585 q 650 450 714 526 q 551 614 551 503 q 609 778 551 700 q 825 961 667 856 l 863 904 m 514 904 q 357 682 357 772 q 367 644 357 656 q 391 627 376 631 q 422 627 395 627 l 444 585 q 301 450 366 526 q 203 614 203 503 q 260 778 203 700 q 476 961 318 856 l 514 904 z "},"”":{"ha":737,"x_min":183,"x_max":843,"o":"m 745 961 q 843 798 843 909 q 785 633 843 711 q 570 450 728 555 l 532 507 q 689 729 689 640 q 679 767 689 755 q 654 784 669 780 q 624 785 651 785 l 602 827 q 745 961 680 885 m 396 961 q 494 798 494 909 q 437 633 494 711 q 221 450 379 555 l 183 507 q 340 729 340 640 q 331 767 340 755 q 306 784 321 780 q 275 785 302 785 l 253 827 q 396 961 332 885 z "},"‘":{"ha":390,"x_min":203,"x_max":514,"o":"m 514 904 q 357 682 357 772 q 367 644 357 656 q 391 627 376 631 q 422 627 395 627 l 444 585 q 301 450 366 526 q 203 614 203 503 q 260 778 203 700 q 476 961 318 856 l 514 904 z "},"’":{"ha":390,"x_min":183,"x_max":494,"o":"m 396 961 q 494 798 494 909 q 437 633 494 711 q 221 450 379 555 l 183 507 q 340 729 340 640 q 331 767 340 755 q 306 784 321 780 q 275 785 302 785 l 253 827 q 396 961 332 885 z "},"÷":{"ha":926,"x_min":171,"x_max":920,"o":"m 543 822 q 598 800 575 822 q 621 746 621 778 q 598 692 621 714 q 543 669 575 669 q 489 692 511 669 q 467 746 467 714 q 489 800 467 778 q 543 822 511 822 m 920 404 l 171 404 l 171 524 l 920 524 l 920 404 m 543 258 q 598 236 575 258 q 621 182 621 214 q 598 128 621 150 q 543 106 576 106 q 489 128 511 106 q 467 182 467 150 q 489 236 467 214 q 543 258 511 258 z "},"◊":{"ha":686,"x_min":81,"x_max":614,"o":"m 347 926 l 614 467 l 347 -5 l 81 467 l 347 926 m 347 132 l 532 467 l 347 790 l 163 467 l 347 132 z "},"ÿ":{"ha":665,"x_min":-103,"x_max":684,"o":"m 603 637 q 684 522 684 601 q 642 385 684 467 q 468 136 600 303 q 246 -127 337 -31 q 100 -257 155 -223 q -3 -292 45 -292 q -103 -258 -51 -292 q -45 -138 -61 -176 l -21 -138 q 41 -178 9 -178 q 240 -32 122 -178 q 211 327 222 232 q 188 449 199 422 q 164 475 177 475 q 90 422 149 475 l 61 454 q 298 629 234 629 q 342 593 326 629 q 371 475 358 557 q 400 154 383 393 q 519 334 479 254 q 559 454 559 414 q 510 510 559 503 l 500 534 q 603 637 555 576 m 611 905 q 656 887 638 905 q 673 836 673 869 q 649 760 673 793 q 587 726 624 726 q 543 746 562 726 q 524 801 524 765 q 549 870 524 836 q 611 905 574 905 m 383 905 q 428 887 410 905 q 446 836 446 869 q 421 760 446 793 q 359 726 396 726 q 315 746 334 726 q 296 801 296 765 q 321 870 296 836 q 383 905 347 905 z "},"Ÿ":{"ha":897,"x_min":168,"x_max":1107,"o":"m 1107 939 l 1095 890 q 1015 869 1037 880 q 955 821 987 857 q 862 707 934 798 l 633 414 l 557 130 q 546 86 546 94 q 555 67 546 73 q 626 51 564 62 q 689 40 687 40 l 673 -7 q 428 0 562 0 q 168 -7 290 0 l 182 40 q 255 53 193 40 q 325 74 316 65 q 357 149 334 83 q 413 323 381 214 q 444 437 444 433 l 347 786 q 340 810 345 793 q 320 855 331 846 q 255 877 310 863 q 196 890 200 890 l 211 939 q 452 930 373 930 q 689 939 545 930 l 676 890 q 566 858 596 872 q 536 825 536 844 q 608 515 536 817 l 764 729 q 831 825 821 807 q 842 854 842 844 q 820 874 842 867 q 758 890 798 882 l 770 939 q 936 930 886 930 q 1107 939 974 930 m 839 1219 q 884 1201 866 1219 q 901 1149 901 1183 q 877 1074 901 1107 q 815 1040 852 1040 q 770 1060 789 1040 q 751 1115 751 1079 q 777 1184 751 1149 q 839 1219 802 1219 m 611 1219 q 656 1201 638 1219 q 673 1149 673 1183 q 649 1074 673 1107 q 587 1040 624 1040 q 543 1060 562 1040 q 524 1115 524 1079 q 549 1184 524 1149 q 611 1219 575 1219 z "},"⁄":{"ha":160,"x_min":-240,"x_max":554,"o":"m 554 953 l -143 -60 l -240 -60 l 460 953 l 554 953 z "},"∕":{"ha":160,"x_min":-240,"x_max":554,"o":"m 554 953 l -143 -60 l -240 -60 l 460 953 l 554 953 z "},"€":{"ha":681,"x_min":45,"x_max":811,"o":"m 119 363 l 45 363 l 65 431 l 127 431 q 142 500 135 472 l 82 500 l 103 568 l 164 568 q 359 853 234 751 q 627 954 485 954 q 811 896 724 954 q 741 664 752 720 l 681 669 q 612 880 702 880 q 458 798 534 880 q 338 568 382 715 l 690 568 l 671 500 l 321 500 q 310 431 312 452 l 653 431 l 632 363 l 306 363 l 306 340 q 433 102 306 102 q 611 182 503 102 l 656 127 q 340 -24 490 -24 q 167 78 224 -24 q 119 363 109 180 z "},"‹":{"ha":334,"x_min":66,"x_max":387,"o":"m 387 541 l 212 306 l 244 62 l 186 62 l 66 322 l 314 541 l 387 541 z "},"›":{"ha":334,"x_min":-3,"x_max":318,"o":"m 318 281 l 71 62 l -3 62 l 172 297 l 140 541 l 199 541 l 318 281 z "},"":{"ha":753,"x_min":-254,"x_max":755,"o":"m 755 954 q 701 789 722 878 l 647 789 q 623 883 647 850 q 555 916 599 916 q 457 863 499 916 q 366 611 415 811 l 542 611 q 705 627 651 611 q 724 631 718 631 q 746 608 746 631 q 725 536 746 600 q 597 146 597 157 q 611 131 597 131 q 643 146 619 131 q 694 186 667 161 l 728 154 q 568 23 632 65 q 458 -20 503 -20 q 416 14 416 -20 q 435 91 416 40 l 501 290 q 570 496 549 439 q 575 518 575 510 q 562 536 575 533 q 507 539 549 539 l 346 539 l 225 82 q 223 75 224 81 q 145 -124 190 -50 q 17 -245 100 -199 q -131 -292 -66 -292 q -254 -250 -195 -292 q -189 -132 -215 -193 l -161 -132 q -68 -207 -126 -207 q -18 -182 -41 -207 q 28 -86 5 -158 q 92 153 51 -14 l 186 539 q 97 539 136 541 l 109 586 q 207 623 149 597 q 299 838 236 765 q 446 950 361 911 q 611 989 531 989 q 755 954 683 989 z "},"ﬁ":{"ha":753,"x_min":-254,"x_max":755,"o":"m 755 954 q 701 789 722 878 l 647 789 q 623 883 647 850 q 555 916 599 916 q 457 863 499 916 q 366 611 415 811 l 542 611 q 705 627 651 611 q 724 631 718 631 q 746 608 746 631 q 725 536 746 600 q 597 146 597 157 q 611 131 597 131 q 643 146 619 131 q 694 186 667 161 l 728 154 q 568 23 632 65 q 458 -20 503 -20 q 416 14 416 -20 q 435 91 416 40 l 501 290 q 570 496 549 439 q 575 518 575 510 q 562 536 575 533 q 507 539 549 539 l 346 539 l 225 82 q 223 75 224 81 q 145 -124 190 -50 q 17 -245 100 -199 q -131 -292 -66 -292 q -254 -250 -195 -292 q -189 -132 -215 -193 l -161 -132 q -68 -207 -126 -207 q -18 -182 -41 -207 q 28 -86 5 -158 q 92 153 51 -14 l 186 539 q 97 539 136 541 l 109 586 q 207 623 149 597 q 299 838 236 765 q 446 950 361 911 q 611 989 531 989 q 755 954 683 989 z "},"":{"ha":766,"x_min":-241,"x_max":876,"o":"m 876 961 q 712 492 815 819 q 610 147 610 165 q 621 131 610 131 q 705 189 635 131 l 734 153 q 576 26 652 73 q 460 -20 500 -20 q 418 17 418 -20 q 463 179 418 36 l 633 747 q 648 829 648 798 q 623 893 648 862 q 558 924 598 924 q 499 905 524 924 q 452 839 475 886 q 405 707 430 791 q 376 608 379 622 q 530 616 490 609 l 539 600 q 500 529 515 564 q 359 541 430 539 q 216 1 239 78 q 150 -138 194 -75 q 30 -246 106 -200 q -119 -292 -46 -292 q -241 -252 -172 -292 q -175 -129 -203 -197 l -153 -129 q -58 -207 -116 -207 q -16 -194 -34 -207 q 27 -124 3 -180 q 82 57 52 -67 l 200 541 q 109 539 146 541 l 119 585 q 215 616 170 599 q 262 769 243 723 q 327 866 281 815 q 441 953 374 917 q 581 989 509 989 q 745 929 667 989 q 844 989 802 954 l 876 961 z "},"ﬂ":{"ha":766,"x_min":-241,"x_max":876,"o":"m 876 961 q 712 492 815 819 q 610 147 610 165 q 621 131 610 131 q 705 189 635 131 l 734 153 q 576 26 652 73 q 460 -20 500 -20 q 418 17 418 -20 q 463 179 418 36 l 633 747 q 648 829 648 798 q 623 893 648 862 q 558 924 598 924 q 499 905 524 924 q 452 839 475 886 q 405 707 430 791 q 376 608 379 622 q 530 616 490 609 l 539 600 q 500 529 515 564 q 359 541 430 539 q 216 1 239 78 q 150 -138 194 -75 q 30 -246 106 -200 q -119 -292 -46 -292 q -241 -252 -172 -292 q -175 -129 -203 -197 l -153 -129 q -58 -207 -116 -207 q -16 -194 -34 -207 q 27 -124 3 -180 q 82 57 52 -67 l 200 541 q 109 539 146 541 l 119 585 q 215 616 170 599 q 262 769 243 723 q 327 866 281 815 q 441 953 374 917 q 581 989 509 989 q 745 929 667 989 q 844 989 802 954 l 876 961 z "},"‡":{"ha":652,"x_min":4,"x_max":742,"o":"m 742 778 l 686 581 l 524 637 q 490 648 503 642 l 479 352 q 397 201 479 340 q 315 49 348 115 q 420 76 412 72 q 553 117 429 81 l 497 -82 q 301 -5 417 -48 q 296 -292 298 -90 l 79 -292 q 237 -5 131 -205 q 4 -82 90 -50 l 60 117 q 254 49 193 68 l 263 323 l 264 345 q 355 514 264 349 q 428 648 399 590 q 192 581 366 635 l 249 778 q 441 703 376 723 q 449 989 446 786 l 665 989 q 555 795 577 840 q 507 703 533 750 q 710 766 596 728 q 742 778 716 770 z "},"·":{"ha":390,"x_min":164,"x_max":380,"o":"m 282 585 q 351 556 322 585 q 380 478 380 528 q 345 381 380 422 q 258 340 309 340 q 192 367 220 340 q 164 441 164 394 q 198 541 164 497 q 282 585 232 585 z "},"∙":{"ha":390,"x_min":164,"x_max":380,"o":"m 282 585 q 351 556 322 585 q 380 478 380 528 q 345 381 380 422 q 258 340 309 340 q 192 367 220 340 q 164 441 164 394 q 198 541 164 497 q 282 585 232 585 z "},"‚":{"ha":390,"x_min":-26,"x_max":285,"o":"m 186 220 q 285 56 285 168 q 227 -109 285 -31 q 11 -292 170 -186 l -26 -235 q 131 -12 131 -102 q 121 25 131 13 q 96 42 111 38 q 65 43 93 43 l 43 85 q 186 220 122 143 z "},"„":{"ha":737,"x_min":-26,"x_max":633,"o":"m 534 220 q 633 56 633 168 q 576 -109 633 -31 q 359 -292 518 -186 l 322 -235 q 479 -12 479 -102 q 470 25 479 13 q 445 42 460 38 q 414 43 441 43 l 392 85 q 534 220 471 143 m 186 220 q 285 56 285 168 q 227 -109 285 -31 q 11 -292 170 -186 l -26 -235 q 131 -12 131 -102 q 121 25 131 13 q 96 42 111 38 q 65 43 93 43 l 43 85 q 186 220 122 143 z "},"‰":{"ha":1331,"x_min":115,"x_max":1378,"o":"m 382 953 q 481 915 446 953 q 517 806 517 877 q 441 554 517 673 q 254 435 366 435 q 150 478 185 435 q 115 583 115 521 q 194 831 115 710 q 382 953 273 953 m 272 489 q 318 516 296 489 q 370 645 340 543 q 400 817 400 746 q 359 897 400 897 q 270 772 306 897 q 233 566 233 646 q 272 489 233 489 m 916 953 l 218 -60 l 121 -60 l 821 953 l 916 953 m 1243 458 q 1342 420 1307 458 q 1378 311 1378 382 q 1303 59 1378 178 q 1116 -60 1227 -60 q 1011 -17 1046 -60 q 977 87 977 26 q 1056 336 977 214 q 1243 458 1135 458 m 1133 -7 q 1180 21 1158 -7 q 1231 150 1201 49 q 1261 322 1261 250 q 1222 403 1261 403 q 1131 277 1168 403 q 1095 71 1095 151 q 1133 -7 1095 -7 m 782 458 q 881 420 846 458 q 917 311 917 382 q 842 59 917 178 q 654 -60 766 -60 q 550 -17 585 -60 q 515 87 515 26 q 594 336 515 214 q 782 458 673 458 m 672 -7 q 717 20 695 -7 q 770 148 739 46 q 800 322 800 250 q 760 403 800 403 q 670 277 706 403 q 633 71 633 151 q 672 -7 633 -7 z "},"Â":{"ha":954,"x_min":-43,"x_max":939,"o":"m 922 40 l 909 -7 q 682 0 791 0 q 422 -7 562 0 l 436 40 q 445 43 437 41 q 565 89 547 69 q 597 239 583 108 q 603 282 600 272 l 361 282 q 254 136 286 183 q 221 75 221 90 q 232 57 221 62 q 290 45 242 53 q 300 42 294 44 q 309 40 307 40 l 294 -7 q 131 0 206 0 q -43 -7 60 0 l -29 40 l 18 52 q 74 76 55 62 q 194 211 93 90 q 515 616 294 332 q 778 961 736 899 l 839 961 q 802 476 819 772 q 785 117 785 180 q 791 86 785 96 q 825 67 798 77 q 922 40 852 58 m 642 657 l 639 660 q 414 351 433 375 l 610 351 l 628 533 q 642 657 637 631 m 939 1019 l 876 1019 q 797 1136 809 1119 l 632 1019 l 555 1019 q 652 1125 588 1049 q 750 1236 716 1200 q 814 1233 781 1233 q 888 1236 840 1233 q 939 1019 906 1138 z "},"Ê":{"ha":882,"x_min":-36,"x_max":970,"o":"m 970 939 q 905 689 937 840 l 852 689 q 846 833 849 821 q 824 853 842 846 q 751 860 805 860 l 543 860 l 446 525 l 547 525 q 609 532 588 525 q 655 569 631 538 q 704 653 679 600 l 760 653 q 661 301 688 426 l 606 301 q 611 414 611 377 q 596 447 611 437 q 530 456 581 456 l 425 456 l 387 323 l 321 75 l 572 75 q 655 83 630 75 q 709 127 681 92 q 798 261 737 163 l 856 261 q 762 -7 817 161 l 313 0 q -36 -7 149 0 l -24 40 q 102 69 83 58 q 161 212 121 80 l 270 584 q 338 844 338 823 q 327 864 338 858 q 210 890 316 871 l 222 939 q 542 930 351 930 q 970 939 755 930 m 847 1019 l 785 1019 q 705 1136 718 1119 l 541 1019 l 464 1019 q 561 1125 496 1049 q 659 1236 625 1200 q 722 1233 690 1233 q 797 1236 749 1233 q 847 1019 814 1138 z "},"Á":{"ha":954,"x_min":-43,"x_max":964,"o":"m 922 40 l 909 -7 q 682 0 791 0 q 422 -7 562 0 l 436 40 q 445 43 437 41 q 565 89 547 69 q 597 239 583 108 q 603 282 600 272 l 361 282 q 254 136 286 183 q 221 75 221 90 q 232 57 221 62 q 290 45 242 53 q 300 42 294 44 q 309 40 307 40 l 294 -7 q 131 0 206 0 q -43 -7 60 0 l -29 40 l 18 52 q 74 76 55 62 q 194 211 93 90 q 515 616 294 332 q 778 961 736 899 l 839 961 q 802 476 819 772 q 785 117 785 180 q 791 86 785 96 q 825 67 798 77 q 922 40 852 58 m 642 657 l 639 660 q 414 351 433 375 l 610 351 l 628 533 q 642 657 637 631 m 964 1232 q 905 1172 961 1227 q 831 1094 849 1116 q 758 1013 813 1072 l 699 1013 q 785 1249 753 1145 q 954 1249 871 1247 l 964 1232 z "},"Ë":{"ha":882,"x_min":-36,"x_max":970,"o":"m 970 939 q 905 689 937 840 l 852 689 q 846 833 849 821 q 824 853 842 846 q 751 860 805 860 l 543 860 l 446 525 l 547 525 q 609 532 588 525 q 655 569 631 538 q 704 653 679 600 l 760 653 q 661 301 688 426 l 606 301 q 611 414 611 377 q 596 447 611 437 q 530 456 581 456 l 425 456 l 387 323 l 321 75 l 572 75 q 655 83 630 75 q 709 127 681 92 q 798 261 737 163 l 856 261 q 762 -7 817 161 l 313 0 q -36 -7 149 0 l -24 40 q 102 69 83 58 q 161 212 121 80 l 270 584 q 338 844 338 823 q 327 864 338 858 q 210 890 316 871 l 222 939 q 542 930 351 930 q 970 939 755 930 m 831 1219 q 876 1201 858 1219 q 893 1149 893 1183 q 868 1074 893 1107 q 807 1040 844 1040 q 762 1060 781 1040 q 743 1115 743 1079 q 769 1184 743 1149 q 831 1219 794 1219 m 603 1219 q 648 1201 630 1219 q 665 1149 665 1183 q 641 1074 665 1107 q 579 1040 616 1040 q 534 1060 553 1040 q 515 1115 515 1079 q 541 1184 515 1149 q 603 1219 567 1219 z "},"È":{"ha":882,"x_min":-36,"x_max":970,"o":"m 970 939 q 905 689 937 840 l 852 689 q 846 833 849 821 q 824 853 842 846 q 751 860 805 860 l 543 860 l 446 525 l 547 525 q 609 532 588 525 q 655 569 631 538 q 704 653 679 600 l 760 653 q 661 301 688 426 l 606 301 q 611 414 611 377 q 596 447 611 437 q 530 456 581 456 l 425 456 l 387 323 l 321 75 l 572 75 q 655 83 630 75 q 709 127 681 92 q 798 261 737 163 l 856 261 q 762 -7 817 161 l 313 0 q -36 -7 149 0 l -24 40 q 102 69 83 58 q 161 212 121 80 l 270 584 q 338 844 338 823 q 327 864 338 858 q 210 890 316 871 l 222 939 q 542 930 351 930 q 970 939 755 930 m 764 1011 l 704 1011 q 639 1084 656 1062 q 561 1166 621 1105 q 498 1230 500 1227 l 508 1247 q 677 1247 591 1245 q 754 1034 727 1103 q 764 1011 758 1029 z "},"Í":{"ha":507,"x_min":-35,"x_max":707,"o":"m 707 939 l 693 890 q 630 879 681 890 q 566 856 579 867 q 531 786 553 846 q 461 567 508 727 q 371 250 414 407 q 329 89 329 94 q 347 65 329 73 q 467 40 366 57 l 453 -7 q 205 0 338 0 l -35 -7 l -20 40 q 14 47 -3 45 q 87 64 68 58 q 115 83 106 70 q 156 193 124 96 q 233 443 189 290 q 311 715 278 595 q 343 846 343 835 q 335 863 343 858 q 272 879 326 868 q 210 890 217 890 l 222 939 q 468 930 378 930 q 707 939 570 930 m 657 1232 q 598 1172 654 1227 q 525 1094 543 1116 q 452 1013 507 1072 l 392 1013 q 478 1249 446 1145 q 648 1249 565 1247 l 657 1232 z "},"Î":{"ha":507,"x_min":-35,"x_max":707,"o":"m 707 939 l 693 890 q 630 879 681 890 q 566 856 579 867 q 531 786 553 846 q 461 567 508 727 q 371 250 414 407 q 329 89 329 94 q 347 65 329 73 q 467 40 366 57 l 453 -7 q 205 0 338 0 l -35 -7 l -20 40 q 14 47 -3 45 q 87 64 68 58 q 115 83 106 70 q 156 193 124 96 q 233 443 189 290 q 311 715 278 595 q 343 846 343 835 q 335 863 343 858 q 272 879 326 868 q 210 890 217 890 l 222 939 q 468 930 378 930 q 707 939 570 930 m 660 1019 l 597 1019 q 518 1136 530 1119 l 353 1019 l 277 1019 q 373 1125 309 1049 q 471 1236 437 1200 q 535 1233 503 1233 q 610 1236 562 1233 q 660 1019 627 1138 z "},"Ï":{"ha":507,"x_min":-35,"x_max":707,"o":"m 707 939 l 693 890 q 630 879 681 890 q 566 856 579 867 q 531 786 553 846 q 461 567 508 727 q 371 250 414 407 q 329 89 329 94 q 347 65 329 73 q 467 40 366 57 l 453 -7 q 205 0 338 0 l -35 -7 l -20 40 q 14 47 -3 45 q 87 64 68 58 q 115 83 106 70 q 156 193 124 96 q 233 443 189 290 q 311 715 278 595 q 343 846 343 835 q 335 863 343 858 q 272 879 326 868 q 210 890 217 890 l 222 939 q 468 930 378 930 q 707 939 570 930 m 643 1219 q 688 1201 670 1219 q 705 1149 705 1183 q 681 1074 705 1107 q 619 1040 656 1040 q 574 1060 593 1040 q 555 1115 555 1079 q 581 1184 555 1149 q 643 1219 606 1219 m 415 1219 q 460 1201 442 1219 q 477 1149 477 1183 q 453 1074 477 1107 q 391 1040 428 1040 q 347 1060 366 1040 q 328 1115 328 1079 q 353 1184 328 1149 q 415 1219 379 1219 z "},"Ì":{"ha":507,"x_min":-35,"x_max":707,"o":"m 707 939 l 693 890 q 630 879 681 890 q 566 856 579 867 q 531 786 553 846 q 461 567 508 727 q 371 250 414 407 q 329 89 329 94 q 347 65 329 73 q 467 40 366 57 l 453 -7 q 205 0 338 0 l -35 -7 l -20 40 q 14 47 -3 45 q 87 64 68 58 q 115 83 106 70 q 156 193 124 96 q 233 443 189 290 q 311 715 278 595 q 343 846 343 835 q 335 863 343 858 q 272 879 326 868 q 210 890 217 890 l 222 939 q 468 930 378 930 q 707 939 570 930 m 576 1011 l 517 1011 q 452 1084 469 1062 q 374 1166 434 1105 q 311 1230 313 1227 l 321 1247 q 490 1247 404 1245 q 567 1034 540 1103 q 576 1011 570 1029 z "},"Ó":{"ha":1013,"x_min":114,"x_max":1055,"o":"m 734 961 q 974 871 893 961 q 1055 643 1055 781 q 970 317 1055 476 q 741 65 885 159 q 428 -28 596 -28 q 190 65 266 -28 q 114 302 114 158 q 196 607 114 446 q 420 864 279 768 q 734 961 562 961 m 493 50 q 606 89 555 50 q 717 221 657 127 q 810 434 777 315 q 844 667 844 553 q 804 831 844 771 q 688 890 764 890 q 511 795 594 890 q 375 547 428 701 q 322 283 322 394 q 493 50 322 50 m 909 1232 q 851 1172 907 1227 q 777 1094 795 1116 q 704 1013 759 1072 l 644 1013 q 730 1249 699 1145 q 900 1249 817 1247 l 909 1232 z "},"Ô":{"ha":1013,"x_min":114,"x_max":1055,"o":"m 734 961 q 974 871 893 961 q 1055 643 1055 781 q 970 317 1055 476 q 741 65 885 159 q 428 -28 596 -28 q 190 65 266 -28 q 114 302 114 158 q 196 607 114 446 q 420 864 279 768 q 734 961 562 961 m 493 50 q 606 89 555 50 q 717 221 657 127 q 810 434 777 315 q 844 667 844 553 q 804 831 844 771 q 688 890 764 890 q 511 795 594 890 q 375 547 428 701 q 322 283 322 394 q 493 50 322 50 m 912 1019 l 850 1019 q 770 1136 783 1119 l 606 1019 l 529 1019 q 626 1125 562 1049 q 724 1236 690 1200 q 787 1233 755 1233 q 862 1236 814 1233 q 912 1019 880 1138 z "},"":{"ha":1080,"x_min":0,"x_max":0,"o":""},"Ò":{"ha":1013,"x_min":114,"x_max":1055,"o":"m 734 961 q 974 871 893 961 q 1055 643 1055 781 q 970 317 1055 476 q 741 65 885 159 q 428 -28 596 -28 q 190 65 266 -28 q 114 302 114 158 q 196 607 114 446 q 420 864 279 768 q 734 961 562 961 m 493 50 q 606 89 555 50 q 717 221 657 127 q 810 434 777 315 q 844 667 844 553 q 804 831 844 771 q 688 890 764 890 q 511 795 594 890 q 375 547 428 701 q 322 283 322 394 q 493 50 322 50 m 829 1011 l 769 1011 q 704 1084 722 1062 q 626 1166 686 1105 q 564 1230 566 1227 l 573 1247 q 743 1247 656 1245 q 819 1034 792 1103 q 829 1011 823 1029 z "},"Ú":{"ha":983,"x_min":171,"x_max":1194,"o":"m 1194 939 l 1178 890 q 1066 863 1078 870 q 1043 834 1055 857 q 1004 727 1031 811 q 930 482 977 642 q 852 227 880 303 q 773 91 824 151 q 649 1 723 31 q 475 -28 574 -28 q 240 47 309 -28 q 171 218 171 121 q 212 432 171 296 q 284 691 249 557 q 319 843 319 825 q 300 867 319 859 q 192 890 281 875 l 205 939 q 437 930 326 930 q 685 939 550 930 l 671 890 q 606 878 660 890 q 543 854 552 865 q 501 760 526 831 q 452 596 488 722 q 386 358 403 429 q 370 237 370 288 q 389 160 370 196 q 445 103 408 123 q 538 83 483 83 q 651 110 604 83 q 728 174 698 136 q 781 274 758 213 q 839 458 805 334 l 906 703 q 939 836 939 824 q 919 864 939 854 q 817 890 900 873 l 831 939 q 1029 930 989 930 q 1194 939 1089 930 m 924 1232 q 865 1172 921 1227 q 791 1094 809 1116 q 718 1013 773 1072 l 659 1013 q 745 1249 713 1145 q 914 1249 831 1247 l 924 1232 z "},"Û":{"ha":983,"x_min":171,"x_max":1194,"o":"m 1194 939 l 1178 890 q 1066 863 1078 870 q 1043 834 1055 857 q 1004 727 1031 811 q 930 482 977 642 q 852 227 880 303 q 773 91 824 151 q 649 1 723 31 q 475 -28 574 -28 q 240 47 309 -28 q 171 218 171 121 q 212 432 171 296 q 284 691 249 557 q 319 843 319 825 q 300 867 319 859 q 192 890 281 875 l 205 939 q 437 930 326 930 q 685 939 550 930 l 671 890 q 606 878 660 890 q 543 854 552 865 q 501 760 526 831 q 452 596 488 722 q 386 358 403 429 q 370 237 370 288 q 389 160 370 196 q 445 103 408 123 q 538 83 483 83 q 651 110 604 83 q 728 174 698 136 q 781 274 758 213 q 839 458 805 334 l 906 703 q 939 836 939 824 q 919 864 939 854 q 817 890 900 873 l 831 939 q 1029 930 989 930 q 1194 939 1089 930 m 899 1019 l 836 1019 q 757 1136 769 1119 l 592 1019 l 515 1019 q 612 1125 548 1049 q 710 1236 676 1200 q 774 1233 741 1233 q 848 1236 800 1233 q 899 1019 866 1138 z "},"Ù":{"ha":983,"x_min":171,"x_max":1194,"o":"m 1194 939 l 1178 890 q 1066 863 1078 870 q 1043 834 1055 857 q 1004 727 1031 811 q 930 482 977 642 q 852 227 880 303 q 773 91 824 151 q 649 1 723 31 q 475 -28 574 -28 q 240 47 309 -28 q 171 218 171 121 q 212 432 171 296 q 284 691 249 557 q 319 843 319 825 q 300 867 319 859 q 192 890 281 875 l 205 939 q 437 930 326 930 q 685 939 550 930 l 671 890 q 606 878 660 890 q 543 854 552 865 q 501 760 526 831 q 452 596 488 722 q 386 358 403 429 q 370 237 370 288 q 389 160 370 196 q 445 103 408 123 q 538 83 483 83 q 651 110 604 83 q 728 174 698 136 q 781 274 758 213 q 839 458 805 334 l 906 703 q 939 836 939 824 q 919 864 939 854 q 817 890 900 873 l 831 939 q 1029 930 989 930 q 1194 939 1089 930 m 843 1011 l 783 1011 q 718 1084 736 1062 q 640 1166 701 1105 q 578 1230 580 1227 l 587 1247 q 757 1247 670 1245 q 833 1034 806 1103 q 843 1011 837 1029 z "},"ı":{"ha":406,"x_min":58,"x_max":387,"o":"m 82 456 q 353 631 280 631 q 387 593 387 631 q 363 500 387 574 l 252 172 q 248 143 248 153 q 260 129 248 129 q 346 186 279 129 l 378 154 q 217 26 294 72 q 100 -20 141 -20 q 58 16 58 -20 q 119 218 58 47 l 168 354 q 195 447 195 431 q 182 464 195 464 q 113 419 169 464 l 82 456 z "},"ˆ":{"ha":463,"x_min":143,"x_max":526,"o":"m 526 722 l 464 722 q 385 839 397 822 l 220 722 l 143 722 q 240 828 176 752 q 338 939 304 903 q 401 936 369 936 q 476 939 428 936 q 526 722 494 841 z "},"˜":{"ha":463,"x_min":157,"x_max":614,"o":"m 614 918 q 473 741 549 741 q 379 777 444 741 q 286 814 312 814 q 216 741 247 814 l 157 741 q 220 870 182 823 q 294 918 258 918 q 395 885 336 918 q 484 844 467 844 q 518 859 503 844 q 554 918 532 873 l 614 918 z "},"ˉ":{"ha":463,"x_min":135,"x_max":635,"o":"m 635 864 l 610 774 l 135 774 l 161 864 l 635 864 z "},"˘":{"ha":463,"x_min":208,"x_max":586,"o":"m 586 928 q 351 733 504 733 q 245 773 283 733 q 208 863 208 814 q 220 928 208 892 l 278 928 q 275 903 275 911 q 299 854 275 873 q 359 835 322 835 q 522 928 465 835 l 586 928 z "},"˙":{"ha":463,"x_min":307,"x_max":457,"o":"m 395 922 q 439 904 422 922 q 457 852 457 886 q 432 777 457 810 q 371 743 408 743 q 326 763 345 743 q 307 818 307 782 q 333 887 307 852 q 395 922 358 922 z "},"˚":{"ha":463,"x_min":231,"x_max":514,"o":"m 372 972 q 472 931 430 972 q 514 831 514 889 q 472 731 514 772 q 372 689 430 689 q 272 731 314 689 q 231 831 231 772 q 272 931 231 889 q 372 972 314 972 m 371 755 q 423 777 401 755 q 444 829 444 798 q 423 881 444 860 q 371 903 401 903 q 319 881 340 903 q 297 829 297 860 q 319 777 297 798 q 371 755 340 755 z "},"¸":{"ha":463,"x_min":-14,"x_max":197,"o":"m 197 9 q 147 -57 178 -22 q 192 -121 192 -70 q -8 -264 192 -227 l -14 -227 q 110 -144 110 -193 q 83 -115 110 -115 q 62 -123 73 -115 l 53 -102 q 153 9 96 -64 l 197 9 z "},"˝":{"ha":463,"x_min":179,"x_max":644,"o":"m 644 935 q 460 715 564 853 l 397 715 q 479 953 458 865 q 554 950 513 950 q 635 953 585 950 l 644 935 m 427 935 q 241 715 347 853 l 179 715 q 261 953 239 865 q 336 950 295 950 q 418 953 366 950 l 427 935 z "},"˛":{"ha":463,"x_min":62,"x_max":368,"o":"m 368 -165 q 174 -257 262 -257 q 92 -227 121 -257 q 62 -161 62 -197 q 192 9 62 -69 l 273 9 q 179 -122 179 -63 q 191 -155 179 -139 q 224 -171 203 -171 q 336 -122 273 -171 l 368 -165 z "},"ˇ":{"ha":463,"x_min":235,"x_max":618,"o":"m 618 936 q 521 831 585 907 q 424 720 457 755 q 359 722 392 722 q 285 720 333 722 q 235 936 268 817 l 297 936 q 376 819 364 836 l 542 936 l 618 936 z "},"Ł":{"ha":854,"x_min":-39,"x_max":860,"o":"m 860 273 q 762 -7 829 201 q 254 0 554 0 q -39 -7 141 0 l -24 40 q -9 43 -22 41 q 88 63 72 58 q 122 102 104 68 q 176 257 140 136 q 199 332 193 326 l 196 335 l -1 211 l 31 322 l 231 446 q 335 843 335 814 q 316 868 335 861 q 243 885 296 874 q 225 888 240 885 q 207 890 210 890 l 221 939 q 479 930 377 930 q 718 939 585 930 l 705 890 q 573 864 587 869 q 547 843 558 859 q 514 760 536 827 q 464 591 491 692 l 675 724 l 643 612 l 432 482 q 321 74 327 92 l 530 74 q 641 79 616 74 q 701 126 666 85 q 798 273 735 167 l 860 273 z "},"ł":{"ha":390,"x_min":-17,"x_max":521,"o":"m 521 692 l 492 590 l 338 494 q 279 308 316 434 q 239 171 241 182 q 235 154 237 160 q 233 146 233 149 q 244 134 233 134 q 315 176 266 134 q 328 187 317 179 l 361 154 q 79 -20 179 -20 q 41 14 41 -20 q 146 376 41 31 l -17 275 l 12 376 l 178 479 l 239 684 q 279 831 279 817 q 273 851 279 846 q 249 856 266 856 q 189 851 228 856 l 201 896 q 471 989 373 933 l 501 961 q 371 599 450 846 l 521 692 z "},"Š":{"ha":753,"x_min":49,"x_max":832,"o":"m 832 899 q 778 681 800 804 q 774 661 774 663 l 708 665 q 695 820 707 781 q 645 875 684 859 q 567 892 605 892 q 464 854 504 892 q 424 762 424 817 q 451 682 424 723 q 562 555 477 642 q 678 414 646 472 q 710 289 710 356 q 608 68 710 165 q 322 -28 507 -28 q 49 31 180 -28 q 125 313 94 152 l 193 313 q 192 222 192 247 q 204 138 192 168 q 241 87 216 109 q 294 59 266 66 q 347 52 321 52 q 464 100 420 52 q 507 222 507 149 q 486 318 507 271 q 376 456 465 364 q 263 589 294 541 q 233 696 233 638 q 328 881 233 800 q 578 961 422 961 q 832 899 712 961 m 819 1233 q 723 1128 787 1204 q 625 1017 659 1052 q 561 1019 593 1019 q 486 1017 534 1019 q 436 1233 469 1114 l 498 1233 q 578 1116 566 1133 l 743 1233 l 819 1233 z "},"š":{"ha":478,"x_min":-18,"x_max":626,"o":"m 513 590 q 465 450 481 506 l 421 450 q 317 575 408 575 q 266 559 287 575 q 245 518 245 543 q 261 473 245 498 q 329 397 277 448 q 447 199 447 286 q 367 47 447 114 q 158 -20 286 -20 q -18 35 56 -20 q 50 178 21 109 l 83 171 q 125 84 87 112 q 214 57 163 57 q 275 77 254 57 q 296 123 296 97 q 217 259 296 175 q 120 378 137 345 q 103 444 103 412 q 172 576 103 521 q 345 631 241 631 q 513 590 430 631 m 626 919 q 529 814 593 890 q 432 703 465 738 q 368 705 400 705 q 293 703 341 705 q 243 919 276 800 l 305 919 q 385 802 372 819 l 550 919 l 626 919 z "},"Ž":{"ha":854,"x_min":4,"x_max":974,"o":"m 974 939 l 960 889 q 907 824 958 882 l 512 368 l 334 156 q 265 75 269 79 l 581 75 q 659 84 631 75 q 719 131 686 92 q 802 261 751 170 l 863 261 l 770 -7 q 397 0 560 0 q 4 -7 211 0 l 21 44 l 376 459 l 711 856 l 461 856 q 354 833 382 856 q 285 728 326 811 q 265 690 279 715 l 207 690 q 261 873 244 809 q 278 939 278 938 q 647 930 434 930 q 974 939 808 930 m 869 1233 q 773 1128 837 1204 q 675 1017 709 1052 q 611 1019 644 1019 q 536 1017 585 1019 q 486 1233 519 1114 l 549 1233 q 628 1116 616 1133 l 793 1233 l 869 1233 z "},"ž":{"ha":550,"x_min":-43,"x_max":663,"o":"m 597 581 q 443 410 508 474 q 243 229 377 347 q 97 92 145 142 l 100 89 q 253 158 196 158 q 330 146 290 158 q 421 126 399 126 q 513 204 469 126 l 554 183 q 462 32 502 74 q 380 -9 422 -9 q 246 9 336 -9 q 109 28 155 28 q -11 -12 43 28 l -43 20 q 150 243 38 139 q 429 489 262 347 l 427 492 q 330 456 374 456 q 275 463 296 456 q 199 484 212 484 q 125 415 168 484 l 82 433 q 237 616 160 616 q 340 593 268 616 q 439 575 404 575 q 566 616 498 575 l 597 581 m 663 919 q 566 814 630 890 q 469 703 502 738 q 404 705 437 705 q 330 703 378 705 q 279 919 313 800 l 342 919 q 421 802 409 819 l 587 919 l 663 919 z "},"¦":{"ha":782,"x_min":390,"x_max":517,"o":"m 517 496 l 390 496 l 390 989 l 517 989 l 517 496 m 517 -165 l 390 -165 l 390 328 l 517 328 l 517 -165 z "},"Ð":{"ha":1042,"x_min":-40,"x_max":1079,"o":"m 220 939 q 422 930 356 930 l 449 930 l 716 935 q 1079 614 1079 935 q 998 317 1079 467 q 762 80 916 167 q 393 -7 607 -7 l 149 0 q -40 -7 133 0 l -25 40 q 41 52 -13 40 q 106 75 94 63 q 141 150 119 87 q 203 353 163 214 q 231 452 207 378 l 96 452 l 115 528 l 252 528 q 335 843 335 814 q 302 869 335 863 q 232 885 267 876 q 205 890 212 890 l 220 939 m 321 79 q 449 68 401 68 q 748 227 628 68 q 868 603 868 385 q 807 805 868 743 q 639 867 746 867 q 542 859 590 867 q 444 528 491 674 l 688 528 l 668 452 l 425 452 l 335 131 q 321 79 332 116 z "},"ð":{"ha":623,"x_min":36,"x_max":647,"o":"m 647 925 l 507 847 q 594 674 561 774 q 628 475 628 574 q 500 120 628 260 q 225 -20 372 -20 q 80 41 123 -20 q 36 184 36 102 q 89 391 36 289 q 224 556 142 492 q 378 619 306 619 q 471 581 429 619 q 425 804 469 702 l 294 733 l 264 786 l 399 860 q 339 945 374 905 l 385 989 q 471 899 460 911 l 616 979 l 647 925 m 277 43 q 402 187 344 43 q 460 457 460 332 q 442 537 460 507 q 390 567 424 567 q 265 439 325 567 q 205 172 205 311 q 277 43 205 43 z "},"Ý":{"ha":897,"x_min":168,"x_max":1107,"o":"m 1107 939 l 1095 890 q 1015 869 1037 880 q 955 821 987 857 q 862 707 934 798 l 633 414 l 557 130 q 546 86 546 94 q 555 67 546 73 q 626 51 564 62 q 689 40 687 40 l 673 -7 q 428 0 562 0 q 168 -7 290 0 l 182 40 q 255 53 193 40 q 325 74 316 65 q 357 149 334 83 q 413 323 381 214 q 444 437 444 433 l 347 786 q 340 810 345 793 q 320 855 331 846 q 255 877 310 863 q 196 890 200 890 l 211 939 q 452 930 373 930 q 689 939 545 930 l 676 890 q 566 858 596 872 q 536 825 536 844 q 608 515 536 817 l 764 729 q 831 825 821 807 q 842 854 842 844 q 820 874 842 867 q 758 890 798 882 l 770 939 q 936 930 886 930 q 1107 939 974 930 m 852 1232 q 794 1172 850 1227 q 720 1094 738 1116 q 647 1013 702 1072 l 587 1013 q 673 1249 642 1145 q 843 1249 760 1247 l 852 1232 z "},"ý":{"ha":665,"x_min":-103,"x_max":684,"o":"m 603 637 q 684 522 684 601 q 642 385 684 467 q 468 136 600 303 q 246 -127 337 -31 q 100 -257 155 -223 q -3 -292 45 -292 q -103 -258 -51 -292 q -45 -138 -61 -176 l -21 -138 q 41 -178 9 -178 q 240 -32 122 -178 q 211 327 222 232 q 188 449 199 422 q 164 475 177 475 q 90 422 149 475 l 61 454 q 298 629 234 629 q 342 593 326 629 q 371 475 358 557 q 400 154 383 393 q 519 334 479 254 q 559 454 559 414 q 510 510 559 503 l 500 534 q 603 637 555 576 m 652 918 q 594 858 650 913 q 520 780 538 802 q 447 699 502 758 l 387 699 q 473 935 441 831 q 643 935 560 933 l 652 918 z "},"Þ":{"ha":956,"x_min":0,"x_max":956,"o":"m 542 733 l 708 733 q 956 533 956 733 q 884 342 956 429 q 721 224 813 254 q 547 193 629 193 l 387 193 q 385 183 387 192 q 364 82 364 97 q 385 60 364 63 l 528 40 l 515 -7 q 271 0 399 0 q 0 -7 182 0 l 12 40 q 134 65 124 60 q 162 111 144 69 q 243 376 180 153 l 339 711 q 371 844 371 824 q 336 872 371 865 q 251 888 290 878 q 243 890 245 890 l 257 939 q 515 930 410 930 q 733 939 613 930 l 721 890 l 704 886 q 591 855 607 874 q 550 757 574 836 l 542 733 m 407 265 l 484 265 q 699 345 631 265 q 766 530 766 425 q 730 628 766 594 q 608 661 694 661 l 519 661 l 407 265 z "},"þ":{"ha":665,"x_min":-140,"x_max":668,"o":"m 346 465 q 461 584 404 538 q 554 631 519 631 q 636 582 604 631 q 668 456 668 534 q 550 127 668 275 q 302 -20 433 -20 q 203 4 253 -20 q 151 -189 151 -152 q 170 -215 151 -206 q 224 -231 188 -224 q 264 -237 260 -237 l 250 -286 q 61 -278 142 -278 q -140 -286 -16 -278 l -126 -237 q -67 -224 -109 -237 q -17 -196 -26 -212 q 24 -81 -7 -180 l 86 119 q 104 182 89 136 l 235 618 q 296 833 296 819 q 269 854 296 854 q 204 847 248 854 l 218 896 q 485 987 388 936 l 514 961 q 343 468 471 866 l 346 465 m 225 97 q 310 57 270 57 q 440 172 384 57 q 497 399 497 288 q 454 479 497 479 q 357 409 416 479 q 225 97 298 338 z "},"−":{"ha":926,"x_min":158,"x_max":907,"o":"m 907 401 l 158 401 l 158 526 l 907 526 l 907 401 z "},"×":{"ha":926,"x_min":196,"x_max":896,"o":"m 896 725 l 635 463 l 895 203 l 806 114 l 546 374 l 286 114 l 197 203 l 457 463 l 196 725 l 283 812 l 546 550 l 808 812 l 896 725 z "},"¹":{"ha":449,"x_min":180,"x_max":507,"o":"m 507 937 q 432 714 460 810 l 386 553 q 379 517 379 539 q 393 495 379 503 q 449 481 408 487 l 439 447 l 306 453 q 180 447 264 453 l 189 481 q 256 501 239 486 q 319 673 272 516 q 366 850 366 830 q 345 864 366 864 q 306 860 326 864 q 288 857 294 857 l 298 895 q 486 956 399 918 l 507 937 z "},"²":{"ha":449,"x_min":111,"x_max":534,"o":"m 254 921 q 395 957 327 957 q 493 925 452 957 q 534 844 534 893 q 473 711 534 777 q 272 545 411 645 l 272 542 l 355 542 q 425 547 415 542 q 451 575 435 553 q 468 603 467 598 l 515 603 q 443 444 467 507 q 277 447 369 447 q 111 444 180 447 l 122 481 q 382 723 336 663 q 428 822 428 782 q 410 864 428 846 q 361 882 393 882 q 267 807 294 882 l 224 807 q 254 921 242 862 z "},"³":{"ha":449,"x_min":139,"x_max":504,"o":"m 273 933 q 392 960 337 960 q 473 936 441 960 q 504 872 504 912 q 415 764 504 802 q 490 647 490 736 q 426 500 490 564 q 265 436 361 436 q 139 467 203 436 q 174 583 163 542 l 214 583 q 233 510 214 526 q 275 493 252 493 q 344 533 317 493 q 371 625 371 573 q 261 715 371 715 l 273 754 q 408 850 408 785 q 361 896 408 896 q 292 846 319 896 l 253 846 q 273 933 267 892 z "},"½":{"ha":1055,"x_min":180,"x_max":1031,"o":"m 507 937 q 432 714 460 810 l 386 553 q 379 517 379 539 q 393 495 379 503 q 449 481 408 487 l 439 447 l 306 453 q 180 447 264 453 l 189 481 q 256 501 239 486 q 319 673 272 516 q 366 850 366 830 q 345 864 366 864 q 306 860 326 864 q 288 857 294 857 l 298 895 q 486 956 399 918 l 507 937 m 1004 953 l 307 -60 l 210 -60 l 909 953 l 1004 953 m 751 425 q 892 461 824 461 q 990 429 949 461 q 1031 349 1031 397 q 970 215 1031 281 q 769 49 908 149 l 769 46 l 852 46 q 922 52 912 46 q 948 80 932 57 q 965 107 964 102 l 1013 107 q 940 -52 964 11 q 774 -49 866 -49 q 608 -52 677 -49 l 619 -15 q 879 227 833 168 q 925 326 925 286 q 907 368 925 351 q 858 386 890 386 q 764 311 791 386 l 721 311 q 751 425 739 366 z "},"¼":{"ha":1055,"x_min":180,"x_max":1021,"o":"m 507 937 q 432 714 460 810 l 386 553 q 379 517 379 539 q 393 495 379 503 q 449 481 408 487 l 439 447 l 306 453 q 180 447 264 453 l 189 481 q 256 501 239 486 q 319 673 272 516 q 366 850 366 830 q 345 864 366 864 q 306 860 326 864 q 288 857 294 857 l 298 895 q 486 956 399 918 l 507 937 m 1004 953 l 307 -60 l 210 -60 l 909 953 l 1004 953 m 1021 444 q 929 146 972 309 q 991 151 968 147 l 1003 135 q 968 73 982 106 q 909 77 947 75 q 905 61 909 74 q 899 41 904 58 q 895 17 895 25 q 909 -4 895 2 q 964 -12 923 -9 l 954 -47 q 819 -45 859 -45 q 703 -47 778 -45 l 713 -12 q 768 -3 753 -8 q 788 14 782 2 q 812 77 795 26 q 616 73 676 77 q 628 146 625 115 l 881 387 q 928 425 914 419 q 960 439 947 431 q 996 463 973 446 l 1021 444 m 893 323 l 890 326 l 711 146 l 833 146 l 893 323 z "},"¾":{"ha":1055,"x_min":139,"x_max":1021,"o":"m 273 933 q 392 960 337 960 q 473 936 441 960 q 504 872 504 912 q 415 764 504 802 q 490 647 490 736 q 426 500 490 564 q 265 436 361 436 q 139 467 203 436 q 174 583 163 542 l 214 583 q 233 510 214 526 q 275 493 252 493 q 344 533 317 493 q 371 625 371 573 q 261 715 371 715 l 273 754 q 408 850 408 785 q 361 896 408 896 q 292 846 319 896 l 253 846 q 273 933 267 892 m 1004 953 l 307 -60 l 210 -60 l 909 953 l 1004 953 m 1021 444 q 929 146 972 309 q 991 151 968 147 l 1003 135 q 968 73 982 106 q 909 77 947 75 q 905 61 909 74 q 899 41 904 58 q 895 17 895 25 q 909 -4 895 2 q 964 -12 923 -9 l 954 -47 q 819 -45 859 -45 q 703 -47 778 -45 l 713 -12 q 768 -3 753 -8 q 788 14 782 2 q 812 77 795 26 q 616 73 676 77 q 628 146 625 115 l 881 387 q 928 425 914 419 q 960 439 947 431 q 996 463 973 446 l 1021 444 m 893 323 l 890 326 l 711 146 l 833 146 l 893 323 z "},"­":{"ha":433,"x_min":36,"x_max":437,"o":"m 437 353 q 382 225 406 298 q 171 232 283 232 q 52 225 98 232 l 36 248 q 97 375 71 304 q 243 371 194 371 q 422 375 292 371 l 437 353 z "},"¯":{"ha":694,"x_min":-8,"x_max":703,"o":"m 703 1034 l -8 1034 l -8 1103 l 703 1103 l 703 1034 z "},"":{"ha":449,"x_min":94,"x_max":498,"o":"m 498 939 q 407 640 450 803 q 469 646 446 642 l 481 629 q 446 567 460 601 q 387 571 425 569 q 383 555 387 568 q 377 536 382 552 q 372 511 372 519 q 387 491 372 496 q 441 482 401 485 l 432 447 q 296 450 336 450 q 180 447 256 450 l 191 482 q 245 491 231 486 q 266 508 260 496 q 290 571 273 520 q 94 567 154 571 q 106 640 103 610 l 359 881 q 406 919 392 913 q 438 933 425 926 q 473 957 451 941 l 498 939 m 371 818 l 368 821 l 189 640 l 311 640 l 371 818 z "},"¤":{"ha":956,"x_min":212,"x_max":905,"o":"m 905 192 l 823 110 l 736 196 q 557 142 648 142 q 383 196 464 142 l 296 110 l 212 192 l 300 279 q 245 456 245 358 q 300 631 245 551 l 212 720 l 294 803 l 383 714 q 559 768 463 768 q 736 714 654 768 l 823 803 l 905 720 l 818 631 q 872 454 872 551 q 818 279 872 358 l 905 192 m 559 260 q 697 317 640 260 q 754 456 754 375 q 697 592 754 535 q 559 650 640 650 q 421 593 479 650 q 364 456 364 536 q 421 317 364 375 q 559 260 479 260 z "}}}
